<?xml version="1.0" standalone="no"?>
<!DOCTYPE svg PUBLIC "-//W3C//DTD SVG 20010904//EN"
 "http://www.w3.org/TR/2001/REC-SVG-20010904/DTD/svg10.dtd">
<svg version="1.0" xmlns="http://www.w3.org/2000/svg"
 width="1398.000000pt" height="865.000000pt" viewBox="0 0 1398.000000 865.000000"
 preserveAspectRatio="xMidYMid meet">

<g transform="translate(0.000000,865.000000) scale(0.100000,-0.100000)"
fill="#000000" stroke="none">
<path d="M680 8643 c0 -5 9 -23 20 -41 11 -18 20 -38 20 -46 0 -7 8 -28 17
-47 11 -21 19 -65 21 -112 4 -73 3 -79 -17 -84 -21 -5 -28 -27 -12 -38 18 -11
63 -101 68 -135 3 -19 13 -44 22 -55 38 -44 49 -160 30 -302 -9 -63 -9 -86 0
-97 7 -8 8 -17 3 -20 -5 -3 -12 -28 -15 -56 -10 -82 -75 -205 -148 -280 -75
-76 -183 -173 -198 -178 -6 -2 -11 -9 -11 -16 0 -10 14 -12 50 -8 l50 5 -4
-125 c-4 -166 -8 -172 -141 -212 -61 -19 -185 -29 -327 -27 l-108 1 0 -1433 0
-1434 58 -12 c31 -7 68 -17 82 -21 14 -5 39 -11 55 -15 44 -8 85 -45 101 -90
21 -58 21 -59 -4 -63 -24 -4 -29 -17 -10 -29 7 -4 21 -24 32 -45 14 -27 26
-38 51 -42 41 -8 63 -31 39 -40 -9 -3 -20 -3 -25 0 -6 3 -16 1 -24 -6 -10 -8
-18 -8 -34 1 -16 11 -23 10 -38 -2 -10 -9 -26 -19 -36 -22 -15 -6 -23 -42 -18
-84 1 -7 -6 -24 -15 -38 -13 -20 -14 -29 -5 -38 6 -6 11 -19 11 -29 0 -15 -5
-17 -25 -12 -15 4 -25 2 -25 -5 0 -6 7 -11 15 -11 20 0 20 -43 0 -73 -8 -13
-11 -28 -6 -36 6 -9 11 -10 15 -2 9 13 26 15 26 2 0 -5 -13 -12 -30 -16 -33
-7 -41 -25 -11 -25 10 0 21 -7 25 -15 4 -12 -3 -15 -29 -15 -24 0 -35 -5 -35
-15 0 -8 8 -15 18 -15 15 -1 15 -2 1 -10 -12 -7 -16 -23 -15 -61 2 -34 -2 -53
-11 -56 -7 -3 -10 -9 -7 -14 3 -5 2 -18 -1 -29 -10 -31 -53 -26 -66 7 -11 30
3 46 34 37 9 -3 17 -1 17 5 0 6 -6 11 -14 11 -7 0 -19 6 -26 14 -6 8 -17 13
-25 10 -7 -3 -16 -1 -20 5 -3 6 -10 11 -16 11 -5 0 -9 -573 -9 -1510 l0 -1510
299 0 299 0 6 26 c8 30 -10 158 -29 220 -8 22 -41 90 -74 151 -33 60 -76 145
-96 189 -20 43 -45 97 -55 119 -40 84 -54 165 -55 300 0 144 22 252 72 352 28
54 77 113 94 113 6 0 24 9 41 21 16 12 62 29 103 40 68 17 81 17 162 4 137
-23 123 -37 124 133 1 195 1 217 -7 285 -6 60 -4 69 58 207 33 72 77 117 158
164 95 55 170 71 294 61 50 -4 99 -12 111 -18 11 -5 27 -13 35 -17 8 -4 14
-14 12 -23 -1 -8 9 -22 22 -30 14 -9 27 -26 31 -37 11 -33 25 -22 25 20 0 24
-6 42 -15 47 -12 7 -11 10 5 21 19 11 20 9 20 -37 0 -28 5 -53 10 -56 14 -9
12 -67 -4 -87 -15 -20 -54 -22 -126 -8 -25 4 -47 7 -48 5 -2 -2 16 -14 40 -26
47 -24 110 -73 169 -131 47 -47 69 -118 69 -225 0 -120 -19 -191 -118 -458
-68 -181 -82 -215 -102 -235 -31 -31 -40 -64 -29 -102 14 -49 11 -158 -6 -214
-8 -27 -15 -59 -15 -71 0 -33 28 -29 36 4 10 40 32 59 53 46 11 -7 18 -32 23
-88 4 -42 13 -83 19 -91 7 -8 9 -17 5 -21 -3 -3 -6 -1 -6 5 0 7 -4 12 -10 12
-13 0 -13 -33 1 -47 8 -8 7 -17 -2 -31 -7 -12 -10 -25 -6 -29 11 -10 27 17 27
44 0 42 18 32 34 -20 17 -56 17 -57 -23 -161 -17 -44 -35 -20 -77 107 -20 62
-40 116 -45 121 -5 6 -9 18 -9 27 0 16 -67 97 -73 88 -9 -11 -28 -161 -22
-178 3 -11 19 -21 37 -25 26 -5 29 -8 18 -21 -13 -16 -40 -20 -40 -7 0 5 -7 9
-15 9 -11 0 -15 -12 -16 -41 0 -23 -1 -70 -2 -106 -1 -36 4 -77 11 -92 13 -28
7 -82 -9 -72 -5 3 -9 -27 -9 -65 l0 -71 2005 0 2006 0 24 28 c20 23 30 27 73
26 27 -1 59 -7 70 -13 27 -14 127 -14 154 0 29 16 115 14 134 -2 14 -11 18
-11 29 4 12 16 14 15 26 -13 14 -30 15 -31 77 -28 l64 3 23 54 c25 60 47 81
82 81 24 0 24 0 7 -28 l-17 -29 44 -41 44 -41 3878 -1 3877 0 0 2135 0 2135
-82 -6 c-119 -8 -190 -23 -185 -38 8 -21 -156 -54 -182 -37 -12 8 -10 11 10
15 61 13 59 14 -16 10 -44 -3 -102 -9 -130 -14 -50 -9 -129 -12 -352 -11 -109
0 -124 2 -142 20 -12 12 -25 21 -30 21 -16 0 -35 111 -34 200 0 14 2 62 4 108
l3 82 66 1 c63 1 64 2 28 12 -28 8 -38 16 -38 31 0 42 12 66 32 66 17 0 20 5
14 30 -6 33 -4 33 46 -3 15 -11 35 -17 47 -14 25 6 40 -10 36 -43 -1 -14 -3
-33 -4 -42 -2 -29 -38 -22 -49 10 -9 24 -10 25 -17 8 -11 -25 5 -48 38 -57 20
-6 27 -4 27 8 0 10 6 12 20 8 18 -6 20 -2 20 33 0 21 -3 42 -7 46 -4 4 -6 22
-5 40 4 39 -3 45 -104 94 -100 49 -128 54 -195 37 -70 -19 -123 -19 -139 0 -7
8 -16 13 -20 10 -5 -3 -11 4 -15 15 -3 11 -11 20 -16 20 -5 0 -9 14 -9 31 0
30 -25 76 -62 112 -17 17 -17 16 -11 -15 3 -18 14 -52 25 -76 10 -24 18 -48
18 -54 0 -6 11 -36 24 -67 13 -31 32 -83 41 -116 10 -33 37 -98 61 -145 24
-47 51 -105 59 -129 42 -122 -6 -323 -146 -606 -38 -76 -69 -143 -69 -147 0
-5 -16 -42 -36 -84 -42 -88 -59 -143 -73 -239 -6 -38 -15 -86 -21 -105 -16
-54 -13 -150 4 -150 8 0 17 12 21 27 3 16 12 36 20 47 13 18 15 18 42 -2 48
-34 66 -107 62 -257 -3 -96 -1 -129 9 -132 8 -3 12 8 12 37 0 39 2 41 27 38
38 -4 38 -21 -1 -62 -19 -20 -37 -48 -40 -62 l-7 -25 -32 18 c-18 10 -34 20
-37 23 -31 32 -165 39 -310 16 -121 -20 -215 -59 -330 -140 -25 -17 -58 -38
-74 -46 -16 -8 -38 -28 -50 -43 -13 -18 -38 -33 -73 -43 -29 -9 -53 -19 -53
-23 0 -16 -55 -28 -129 -30 -58 -1 -78 2 -93 16 -11 10 -30 22 -43 28 -23 10
-138 108 -177 150 -43 48 -76 82 -104 107 -16 15 -36 34 -44 43 -39 40 -101
87 -107 81 -4 -3 14 -28 40 -54 116 -118 130 -292 33 -397 -14 -15 -26 -32
-26 -36 0 -4 -19 -21 -43 -37 -31 -22 -50 -28 -73 -25 -25 4 -32 0 -42 -21 -7
-16 -28 -32 -51 -42 -22 -9 -39 -21 -38 -26 3 -18 -62 -30 -96 -19 -46 16
-129 13 -156 -5 -17 -12 -26 -13 -34 -5 -8 8 -5 11 13 11 18 0 21 3 13 11 -8
8 -17 7 -33 -4 -19 -13 -19 -16 -5 -30 22 -22 19 -40 -5 -32 -11 4 -20 2 -20
-4 0 -6 4 -11 8 -11 5 0 14 -11 20 -25 9 -20 8 -26 -6 -34 -9 -5 -14 -13 -10
-17 15 -15 -16 -34 -54 -34 -35 0 -39 2 -33 20 9 27 -3 60 -21 60 -11 0 -13 6
-9 20 4 12 2 27 -4 34 -7 8 -9 31 -5 60 8 54 27 60 64 21 14 -14 34 -25 49
-25 23 1 24 2 9 11 -10 5 -18 16 -18 24 0 8 -16 30 -35 49 -19 20 -35 38 -35
41 0 3 -11 28 -24 55 -13 28 -20 50 -15 50 4 0 6 7 3 15 -4 8 -10 12 -15 9
-17 -10 -9 27 11 48 22 24 26 75 11 124 -45 147 -49 241 -10 296 37 52 91 71
213 75 60 1 114 -1 120 -6 6 -4 25 -11 41 -15 27 -7 28 -6 15 8 -9 9 -38 20
-65 25 -28 5 -63 17 -80 25 -16 9 -39 16 -49 16 -20 0 -123 31 -186 56 -19 7
-53 16 -75 20 -22 4 -48 11 -57 16 -17 8 -105 -2 -140 -17 -15 -6 -18 -2 -18
18 0 49 17 74 62 91 54 22 78 43 78 70 0 20 -46 76 -62 76 -5 0 -33 15 -63 34
-29 19 -55 32 -58 29 -11 -10 -69 43 -83 76 -27 63 -12 142 52 280 20 44 23
59 15 80 -6 14 -13 43 -17 64 -3 20 -13 41 -21 46 -25 14 40 34 204 63 53 10
72 9 122 -7 41 -12 64 -14 76 -8 17 10 17 11 -1 30 -31 32 -102 185 -109 234
-7 50 1 73 41 122 28 33 31 69 9 87 -9 7 -14 22 -13 34 2 17 -9 27 -57 50 -56
27 -58 29 -35 38 17 6 32 5 48 -4 20 -10 25 -10 33 4 6 10 17 14 31 10 29 -7
17 11 -39 62 -24 21 -60 66 -80 100 -58 96 -85 128 -97 116 -48 -48 -103 79
-76 179 9 34 8 53 -4 94 -21 75 -27 174 -18 317 l7 125 25 -25 c14 -14 47 -33
75 -42 60 -22 65 -22 65 -3 0 8 5 15 10 15 25 0 -1 136 -40 205 -10 18 -19 45
-21 61 -4 45 11 145 28 189 25 66 25 129 -1 119 -13 -5 -74 40 -107 77 -25 29
-24 52 6 87 35 41 85 194 78 236 -4 29 0 39 32 72 20 22 41 49 46 62 5 12 16
22 26 22 9 0 28 14 43 31 19 24 36 32 65 35 22 2 50 6 62 10 15 4 23 1 27 -13
3 -10 18 -26 33 -35 l26 -16 -27 -26 c-21 -19 -37 -25 -64 -23 -51 3 -51 -18
0 -36 111 -38 207 -67 227 -67 12 0 29 -4 39 -9 83 -44 376 -61 475 -27 26 9
89 18 139 21 86 4 98 7 192 54 56 28 117 60 136 71 39 22 82 27 78 8 -7 -37
46 -89 73 -73 16 11 10 25 -15 35 -19 7 -26 19 -31 54 -11 70 -5 76 67 76 71
0 108 -18 108 -53 0 -27 19 -61 21 -37 0 10 3 8 9 -5 5 -11 9 -14 9 -6 1 18
31 -6 31 -25 0 -8 5 -14 10 -14 6 0 15 -11 20 -25 14 -37 33 -31 57 18 20 39
22 40 22 15 1 -23 6 -28 25 -28 38 0 67 -50 73 -124 4 -49 2 -64 -11 -75 -12
-10 -19 -11 -30 -2 -12 11 -13 7 -3 -26 6 -21 14 -40 17 -43 16 -14 29 -117
28 -215 -1 -69 3 -118 10 -132 17 -31 15 -78 -7 -169 -18 -74 -25 -263 -10
-278 3 -3 19 4 37 14 22 13 32 27 32 43 0 30 40 91 63 95 13 3 17 -4 17 -25 0
-16 4 -33 9 -38 5 -6 12 -24 16 -42 6 -29 4 -32 -25 -38 l-32 -7 24 -16 c22
-15 33 -27 93 -97 l26 -30 -5 40 c-3 22 -8 78 -11 125 -6 80 -17 140 -36 185
-14 36 -31 186 -45 403 -5 81 -3 102 7 102 10 0 10 3 1 12 -13 13 -16 85 -6
112 5 13 9 14 20 5 11 -9 17 -9 28 0 10 9 15 8 19 -3 3 -8 22 -22 41 -31 39
-19 112 -82 109 -93 -2 -4 16 -7 40 -8 23 0 69 -4 102 -9 94 -12 296 -13 339
-1 22 6 41 17 44 25 3 9 -2 11 -14 7 -29 -8 -89 -9 -204 -1 -119 9 -165 23
-73 23 112 0 204 26 187 53 -3 5 10 28 30 49 20 22 36 47 36 56 0 26 51 104
68 105 13 0 11 3 -5 11 -19 9 -23 19 -23 59 0 43 2 48 24 51 l24 3 -20 45
c-12 25 -27 58 -34 74 -8 16 -14 34 -14 39 0 6 -22 53 -49 106 -51 100 -60
132 -91 321 -22 131 -23 140 -12 140 15 0 50 -103 57 -165 7 -65 28 -125 43
-125 6 0 13 20 16 45 4 24 11 47 17 50 5 4 21 -19 35 -50 31 -68 113 -158 208
-230 39 -29 82 -65 95 -79 14 -14 28 -26 32 -26 12 0 22 32 29 90 6 43 9 50
15 33 4 -13 11 -23 16 -23 5 0 14 -12 20 -26 9 -25 12 -26 61 -21 67 8 82 23
34 33 -37 6 -74 44 -62 63 3 5 25 12 49 16 23 4 50 12 60 17 12 6 23 6 31 -1
15 -13 26 -5 26 19 0 27 102 139 127 140 21 0 59 45 76 92 3 9 30 35 59 58 29
22 70 55 91 72 l37 31 0 578 0 579 -1337 0 c-1259 0 -1336 -1 -1313 -17 14 -9
28 -21 32 -27 3 -5 30 -19 60 -31 40 -16 56 -28 67 -53 8 -18 21 -32 28 -32 7
0 13 -4 13 -8 0 -5 20 -22 44 -39 52 -37 69 -83 30 -83 -13 0 -24 4 -24 10 0
5 -28 39 -61 75 -42 45 -67 64 -78 60 -11 -3 -25 5 -38 23 -11 15 -39 34 -62
42 -22 7 -41 17 -41 21 0 15 -70 48 -111 51 -39 3 -45 0 -66 -31 -20 -30 -22
-37 -10 -55 18 -27 27 -66 17 -66 -8 0 -24 -50 -25 -80 -1 -21 -26 -93 -36
-105 -5 -5 -9 -15 -9 -23 0 -8 -9 -26 -20 -42 -11 -15 -17 -30 -14 -33 8 -7
-26 -63 -59 -97 -29 -31 -43 -102 -24 -118 7 -6 23 -9 35 -5 19 4 22 1 22 -21
0 -14 5 -26 11 -26 5 0 7 -5 4 -10 -11 -17 107 10 159 37 28 15 30 14 53 -16
23 -29 73 -44 73 -23 0 13 148 8 161 -5 6 -6 15 -30 19 -52 7 -39 6 -42 -18
-48 -22 -5 -23 -7 -9 -18 22 -16 22 -43 0 -47 -10 -2 -30 2 -45 10 -32 15 -77
7 -59 -11 8 -8 5 -17 -10 -33 -11 -12 -22 -30 -23 -40 -2 -15 -10 -18 -32 -15
l-29 3 20 -22 c12 -13 27 -19 38 -16 11 3 25 -1 32 -7 8 -7 27 -22 43 -35 17
-12 33 -34 36 -47 4 -14 11 -25 16 -25 22 0 80 -63 85 -93 6 -32 -19 -152 -48
-232 -7 -22 -22 -74 -32 -115 -10 -41 -26 -92 -37 -112 -13 -27 -17 -49 -12
-77 6 -36 3 -44 -25 -72 -27 -26 -37 -30 -64 -25 -21 4 -51 -1 -87 -15 -30
-12 -98 -32 -150 -45 -52 -13 -120 -32 -150 -44 -93 -34 -233 -21 -297 28 -16
12 -45 42 -63 67 -18 25 -52 57 -74 71 -55 36 -145 130 -152 160 -3 13 -10 24
-15 24 -18 0 -59 102 -69 172 -11 79 -3 456 10 473 9 11 30 109 36 164 2 18 9
41 17 50 24 29 6 221 -21 221 -12 0 -13 8 -8 41 4 23 9 80 12 128 8 111 27
168 69 208 30 27 39 31 75 26 22 -3 43 -9 45 -13 3 -4 5 -37 6 -74 1 -36 4
-66 6 -66 2 0 13 20 24 44 27 62 46 66 55 11 5 -37 12 -47 37 -60 38 -19 35
-19 39 8 2 16 9 21 23 19 25 -5 35 -20 35 -54 0 -15 5 -30 10 -33 6 -3 10 -26
10 -50 0 -62 32 -97 83 -88 41 6 56 32 56 98 0 22 2 47 4 55 2 8 9 42 17 75 7
33 19 67 27 76 7 8 13 20 13 26 0 6 9 22 20 36 11 14 16 28 11 31 -12 8 -3 42
15 57 8 6 14 15 14 20 0 5 -66 9 -146 9 -80 0 -143 -4 -140 -9 3 -4 -4 -17
-15 -27 -20 -18 -21 -18 -34 -1 -13 18 -14 18 -25 -2 -11 -21 -40 -29 -40 -12
0 6 -19 14 -42 19 -24 5 -42 14 -40 20 1 9 -207 12 -869 12 -577 0 -868 -3
-864 -10 3 -5 13 -10 21 -10 8 0 21 -15 29 -34 8 -19 31 -47 50 -62 27 -20 35
-33 33 -53 -2 -16 2 -26 10 -26 12 0 41 -63 42 -87 0 -4 -14 -3 -30 2 -25 7
-33 5 -43 -11 -6 -10 -19 -19 -27 -19 -43 -1 -150 -52 -150 -73 0 -6 -7 -18
-16 -28 -22 -25 -34 -86 -23 -118 8 -24 15 -27 47 -26 20 1 52 7 70 13 22 7
32 7 32 0 0 -7 17 -9 47 -5 26 3 58 1 72 -5 14 -5 42 -6 62 -3 l38 7 -22 25
c-12 14 -34 31 -49 39 -33 17 -119 18 -187 2 -28 -6 -54 -8 -58 -5 -21 22 140
117 197 117 21 0 91 -67 123 -115 61 -92 68 -135 72 -430 5 -338 -2 -375 -105
-545 -67 -113 -110 -188 -110 -194 0 -4 14 0 30 9 17 9 30 12 31 8 6 -63 23
-106 62 -165 20 -30 61 -37 98 -18 15 8 19 7 19 -5 0 -8 5 -15 10 -15 6 0 10
13 10 29 0 17 10 42 24 58 22 26 26 27 58 16 43 -16 71 -8 91 25 8 15 24 36
35 46 19 16 22 16 45 1 15 -10 34 -14 49 -10 19 5 35 -2 68 -30 27 -23 47 -32
53 -26 16 16 -2 67 -39 110 l-35 41 35 31 c21 18 36 40 36 53 -1 38 -38 105
-69 124 l-31 19 37 11 c77 24 124 30 156 20 45 -14 219 -13 272 2 43 12 109 7
119 -9 3 -4 2 -17 -1 -29 -4 -18 -13 -22 -44 -22 -21 0 -41 -4 -44 -10 -3 -5
-2 -10 3 -10 4 0 28 -15 51 -32 l43 -33 -7 -62 -7 -63 31 0 c24 0 31 -4 31
-20 0 -22 35 -28 43 -7 4 8 6 9 6 0 1 -6 -6 -19 -15 -27 -8 -9 -11 -16 -5 -16
5 0 -1 -11 -14 -25 -14 -13 -25 -33 -25 -45 0 -26 -28 -70 -45 -70 -7 0 -34
-25 -61 -56 -40 -47 -81 -84 -159 -142 -32 -23 -75 10 -50 38 21 23 9 90 -16
90 -11 0 -19 -4 -19 -8 0 -5 -8 -17 -17 -28 -46 -51 -53 -80 -72 -286 -24
-251 -30 -308 -40 -378 -7 -46 -8 -49 -10 -18 0 20 -6 40 -11 43 -5 3 -10 1
-10 -4 0 -6 -5 -11 -11 -11 -8 0 -10 20 -5 68 4 37 11 128 16 202 5 74 14 171
19 215 5 46 5 85 0 91 -10 13 -30 10 -147 -17 -46 -11 -103 -19 -125 -18 -23
1 -59 -2 -79 -6 -30 -6 -39 -4 -44 9 -8 21 -23 20 -46 -1 -13 -11 -43 -18 -99
-21 -97 -6 -101 -12 -92 -130 5 -65 3 -83 -12 -106 -18 -26 -18 -27 3 -33 24
-6 23 -1 47 -213 9 -80 22 -156 28 -169 13 -26 70 -52 236 -106 103 -34 105
-34 135 -17 18 10 45 16 64 14 31 -3 32 -5 32 -49 0 -37 3 -44 16 -39 9 3 18
6 20 6 2 0 4 10 4 23 0 34 23 77 41 77 13 0 17 -18 22 -107 10 -162 8 -348 -4
-380 -6 -15 -12 -86 -14 -158 -2 -71 -7 -151 -10 -177 -7 -51 7 -67 22 -25 6
16 10 -4 14 -68 4 -49 15 -140 26 -200 24 -145 10 -196 -52 -185 -23 4 -35 0
-52 -19 -30 -31 -30 -69 -1 -73 12 -2 23 -8 25 -14 2 -6 -35 -49 -82 -96 -47
-47 -85 -90 -85 -96 0 -6 12 -18 28 -26 15 -8 37 -26 49 -40 13 -14 27 -26 32
-26 5 0 16 -12 26 -26 16 -25 16 -27 -10 -54 l-26 -27 -122 4 c-118 4 -307 37
-307 53 0 4 14 10 32 14 51 10 58 21 42 64 -28 78 -18 89 65 67 101 -26 223
-13 144 15 -15 6 -37 14 -48 19 -11 5 -28 12 -38 15 -10 3 -15 11 -11 17 4 8
9 7 15 -2 7 -11 9 -10 9 4 0 10 -10 22 -22 27 -13 5 -34 19 -48 30 -16 13 -48
22 -87 26 -82 9 -162 -22 -199 -75 -32 -48 -31 -75 6 -103 21 -15 30 -30 30
-50 0 -25 -4 -28 -32 -28 -18 0 -49 10 -68 22 -35 21 -55 24 -257 34 -35 1
-63 -1 -63 -5 0 -19 -143 -30 -319 -25 -102 2 -187 6 -189 9 -12 11 10 35 32
35 18 0 30 9 41 30 29 55 16 63 -53 30 -52 -26 -67 -25 -86 2 -22 32 -21 35
22 42 21 3 49 15 62 26 l23 20 -49 0 c-27 0 -78 -6 -114 -14 -110 -24 -141
-38 -193 -87 l-38 -37 32 -11 c18 -6 54 -11 80 -11 51 0 57 -7 38 -42 -10 -19
-17 -20 -85 -13 -64 6 -74 5 -74 -9 0 -13 -16 -16 -97 -18 -54 0 -105 0 -113
1 -35 5 -99 1 -125 -9 -45 -17 -39 -5 16 35 29 20 63 50 77 67 13 16 41 37 61
48 69 35 76 65 19 91 -48 21 -71 60 -71 116 1 104 16 294 24 299 5 3 9 14 9
26 0 11 12 58 26 105 23 75 26 103 27 239 0 127 -2 157 -15 171 -9 10 -22 47
-28 83 -7 36 -16 73 -21 83 -5 9 -6 35 -3 56 5 31 2 43 -15 60 -11 11 -23 33
-26 48 -3 16 -10 44 -15 64 -6 20 -10 49 -10 65 0 34 -22 110 -44 153 -9 17
-45 60 -80 97 l-64 66 -15 -23 c-9 -13 -35 -68 -58 -121 -30 -71 -52 -108 -81
-134 -55 -49 -82 -44 -128 23 -20 30 -43 53 -53 53 -17 0 -77 50 -77 65 0 4
15 22 33 40 38 37 82 123 132 255 42 113 41 111 83 136 31 17 33 22 27 54 -4
19 -10 56 -14 81 -4 25 -16 58 -28 75 -11 16 -24 40 -28 54 -9 31 -68 97 -112
128 l-33 23 -11 -28 c-29 -78 -63 -164 -86 -213 -66 -145 -72 -181 -51 -295 9
-50 8 -73 -2 -109 -15 -53 -35 -75 -52 -58 -7 7 -18 12 -24 12 -13 0 -44 -54
-44 -76 0 -19 -65 -44 -116 -44 -23 0 -45 -3 -47 -7 -3 -5 -301 -8 -664 -7
-623 1 -1064 13 -1162 31 -43 8 -45 10 -57 56 -7 26 -17 54 -24 62 -6 8 -9 19
-5 24 3 6 -1 47 -10 92 -18 97 -19 147 -4 256 l12 81 26 -11 c14 -7 54 -29 88
-49 35 -21 69 -38 77 -38 8 0 18 -4 21 -10 8 -13 35 -13 35 0 0 6 -8 13 -17
16 -10 3 -26 10 -35 15 -10 5 -24 9 -32 9 -20 0 -56 40 -56 62 0 20 20 16 60
-14 14 -10 49 -22 78 -27 29 -4 60 -15 70 -24 17 -16 20 -15 40 13 16 21 34
32 61 36 22 3 63 18 92 33 42 21 55 32 57 53 2 14 14 36 28 49 30 28 30 44 -1
75 -43 42 -48 61 -28 94 25 44 66 40 166 -14 227 -121 256 -130 417 -130 134
0 176 10 280 72 25 15 59 32 75 38 17 6 37 14 45 18 10 4 38 -12 77 -44 101
-82 155 -79 260 13 33 29 68 31 57 4 -9 -23 17 -25 94 -7 75 18 125 51 138 92
3 11 16 23 28 28 17 6 25 19 30 49 3 22 16 51 29 65 20 23 26 25 62 16 69 -16
162 -1 313 52 29 10 63 18 75 18 12 0 37 16 55 34 38 40 85 54 108 35 14 -12
14 -14 -2 -26 -12 -9 -14 -13 -4 -13 7 0 21 -7 31 -16 16 -15 19 -14 31 5 14
23 47 28 66 9 12 -12 17 -8 101 72 14 15 43 38 64 53 20 16 37 31 37 35 0 4
-31 39 -69 79 -109 114 -129 144 -136 199 -4 28 -2 68 4 91 10 37 17 44 50 54
28 8 44 8 59 0 11 -6 37 -11 57 -11 20 0 45 -5 56 -11 49 -26 59 41 22 146 -8
22 -19 82 -24 134 -8 87 -7 97 12 127 24 40 18 71 -17 80 -20 5 -24 13 -25 48
-2 39 -1 158 0 182 1 7 20 23 43 37 34 20 46 22 61 13 15 -9 23 -5 50 25 27
30 59 78 75 112 2 4 -1220 7 -2716 7 l-2720 0 -28 -29 c-16 -16 -34 -35 -41
-42 -33 -38 -63 -50 -63 -26 0 15 44 77 62 89 7 4 -382 8 -864 8 -483 0 -878
-3 -878 -7z m2235 -33 c3 -6 3 -15 -1 -21 -4 -8 -13 -4 -25 12 -10 13 -19 28
-19 32 0 9 36 -9 45 -23z m7541 4 c-4 -9 -9 -15 -11 -12 -3 3 -3 13 1 22 4 9
9 15 11 12 3 -3 3 -13 -1 -22z m-5319 -16 c-3 -7 -5 -2 -5 12 0 14 2 19 5 13
2 -7 2 -19 0 -25z m-2314 4 c9 -12 9 -16 -1 -20 -7 -2 -19 -11 -28 -20 -13
-13 -17 -13 -25 -1 -5 8 -9 17 -9 21 0 4 -14 8 -32 10 -17 2 -33 8 -35 14 -6
18 115 14 130 -4z m7587 4 c0 -17 -14 -29 -23 -20 -8 8 3 34 14 34 5 0 9 -6 9
-14z m354 -21 c-4 -8 -7 -15 -9 -15 -2 0 -5 7 -9 15 -3 9 0 15 9 15 9 0 12 -6
9 -15z m-8126 -14 c3 -8 -1 -12 -9 -9 -7 2 -15 10 -17 17 -3 8 1 12 9 9 7 -2
15 -10 17 -17z m-72 -22 c4 -7 -1 -16 -10 -21 -9 -5 -14 -13 -11 -19 3 -5 2
-16 -3 -26 -9 -14 -10 -14 -16 5 -7 22 -30 30 -40 14 -10 -17 6 -82 21 -82 15
0 33 -40 33 -75 0 -15 -5 -22 -17 -21 -10 0 -19 -7 -21 -17 -2 -10 2 -16 9
-15 17 4 24 -41 10 -55 -14 -14 -14 -64 0 -73 7 -4 9 -24 5 -55 -4 -31 -3 -49
4 -49 5 0 10 8 10 18 1 9 9 35 20 57 l19 40 1 -48 c0 -28 -8 -62 -20 -84 -10
-20 -17 -40 -14 -45 7 -10 1 -10 -30 2 -22 8 -26 16 -26 50 0 22 -4 40 -10 40
-5 0 -10 -18 -10 -40 0 -22 3 -40 8 -40 4 0 8 -12 8 -26 1 -14 11 -36 23 -48
12 -12 21 -30 21 -39 0 -9 8 -15 18 -14 14 1 19 9 19 32 0 77 2 88 17 76 17
-14 36 -87 36 -138 0 -21 5 -45 11 -53 7 -11 9 6 7 58 -2 39 0 72 3 72 3 0 14
-19 24 -42 9 -24 21 -52 26 -63 4 -11 10 -33 13 -50 3 -16 3 11 0 61 -3 69 -1
94 9 102 8 7 17 9 20 6 17 -17 69 -140 83 -196 21 -80 31 -94 55 -73 9 9 23
30 29 46 7 17 26 37 41 45 27 14 29 13 29 -5 0 -53 37 -17 54 52 8 35 18 34
41 -5 10 -18 21 -35 24 -38 3 -3 19 -22 34 -42 15 -21 34 -38 42 -38 18 0 28
34 20 70 -7 33 2 38 37 19 17 -9 24 -7 41 9 13 14 25 18 36 12 9 -4 35 -14 58
-21 24 -6 50 -21 60 -31 17 -19 34 -111 24 -126 -10 -14 -87 -32 -139 -32 -36
0 -71 -10 -124 -34 -40 -18 -81 -36 -90 -39 -23 -8 -50 -63 -46 -95 2 -22 7
-26 28 -24 14 2 95 8 180 14 85 6 160 15 167 20 6 5 15 23 18 39 8 38 36 53
61 34 18 -12 19 -30 20 -242 1 -256 -6 -297 -61 -379 -51 -78 -311 -329 -367
-356 -51 -24 -56 -38 -36 -85 19 -45 39 -63 70 -63 18 0 28 -5 28 -14 0 -8 8
-21 19 -28 10 -7 26 -29 36 -48 10 -19 33 -52 52 -73 18 -21 41 -53 50 -72 9
-19 20 -35 25 -35 4 0 8 -8 8 -18 0 -20 44 -47 94 -57 16 -3 41 -19 57 -35 16
-16 29 -24 29 -19 0 14 38 11 43 -3 2 -7 7 -2 10 12 8 40 27 242 27 295 0 74
13 85 34 30 10 -25 21 -43 26 -40 4 3 11 -7 15 -23 7 -27 7 -27 18 -4 10 21
37 31 37 14 0 -5 10 -13 23 -19 16 -8 25 -7 35 3 18 19 15 41 -10 75 -14 19
-22 41 -20 60 3 21 -4 37 -26 58 -30 30 -48 71 -31 71 5 0 9 7 9 15 0 17 -77
71 -87 61 -4 -4 -6 -26 -4 -50 2 -39 -10 -83 -45 -162 -17 -40 -88 -104 -113
-104 -31 0 -33 16 -11 69 19 42 22 71 23 217 2 151 5 174 24 214 39 81 62 148
68 202 15 122 42 155 120 145 76 -11 125 -44 251 -172 67 -68 126 -120 131
-117 6 4 19 32 28 62 10 30 21 58 24 62 4 4 53 10 109 12 111 5 119 1 84 -45
-28 -36 -59 -91 -67 -118 -7 -21 -5 -23 19 -19 16 3 26 1 26 -6 0 -19 -38
-116 -51 -133 -10 -12 -9 -21 5 -48 20 -36 40 -37 65 -2 18 25 22 17 62 -103
40 -123 67 -192 101 -260 16 -30 28 -61 28 -68 0 -34 -38 2 -108 103 -69 97
-80 109 -107 110 -21 0 -33 7 -40 23 -15 34 -22 27 -29 -30 -11 -100 -8 -129
19 -154 14 -13 25 -34 25 -49 0 -18 5 -25 19 -25 27 0 71 -56 73 -93 1 -18 2
-41 3 -52 1 -11 3 -28 4 -38 2 -29 21 -9 21 22 0 42 24 58 44 30 12 -18 18
-20 30 -10 22 18 35 6 42 -40 6 -37 8 -38 24 -24 25 22 30 19 30 -19 0 -28 3
-33 18 -30 46 12 63 -153 38 -373 -9 -78 -17 -168 -18 -200 -1 -32 -7 -75 -15
-97 -7 -21 -13 -55 -13 -75 -1 -36 -18 -114 -40 -181 -6 -19 -16 -50 -21 -67
-5 -18 -14 -50 -20 -70 -6 -21 -14 -56 -19 -78 -5 -22 -13 -58 -18 -80 -43
-181 -55 -232 -78 -315 -14 -52 -32 -119 -40 -148 -8 -29 -14 -64 -14 -77 0
-13 -5 -35 -12 -49 -10 -23 -6 -33 40 -102 29 -43 52 -83 52 -91 0 -25 -30
-13 -36 15 -9 35 -22 43 -46 29 -13 -9 -21 -9 -26 -1 -4 6 -39 11 -82 11 -43
0 -90 7 -110 16 -38 16 -60 13 -60 -7 0 -16 80 -84 150 -127 66 -40 95 -70
120 -124 23 -48 20 -50 -70 -59 -129 -14 -206 -39 -278 -88 -65 -45 -192 -184
-192 -211 0 -14 68 1 120 26 25 12 64 39 88 61 39 36 45 38 69 27 21 -10 28
-9 34 1 7 10 14 10 41 0 18 -8 57 -23 87 -33 93 -35 141 -61 160 -88 23 -33
34 -131 15 -131 -39 0 26 -91 92 -128 11 -6 11 -21 3 -77 -6 -39 -18 -85 -25
-102 -13 -29 -13 -38 3 -83 14 -40 15 -55 6 -79 -8 -22 -8 -33 1 -41 8 -9 8
-14 -1 -17 -8 -3 -13 -22 -13 -47 l0 -43 -42 40 c-59 54 -111 77 -181 77 -56
0 -60 -2 -105 -46 -50 -49 -109 -84 -141 -84 -11 0 -46 -24 -78 -54 -32 -29
-92 -75 -133 -101 -41 -26 -84 -55 -95 -65 -11 -9 -42 -25 -68 -35 -40 -15
-51 -25 -68 -62 -11 -23 -23 -43 -28 -43 -5 0 -11 17 -15 38 -3 20 -8 55 -11
77 -4 22 -13 54 -21 72 -8 17 -14 45 -14 62 0 32 -8 39 -27 20 -16 -16 -51 10
-62 46 -11 34 -15 105 -12 180 l3 50 19 -57 c11 -31 27 -59 36 -62 20 -8 53
21 53 47 0 22 -36 74 -84 119 l-31 30 27 -7 c29 -7 47 10 29 28 -15 15 -14 27
3 27 15 0 29 37 16 45 -12 7 -85 -55 -84 -71 2 -19 -15 -18 -38 3 -26 23 -23
51 7 59 52 13 81 86 32 81 -17 -2 -22 6 -29 38 -5 22 -6 55 -3 73 6 35 59 102
79 102 7 0 18 11 24 24 9 21 8 27 -14 40 -19 13 -24 25 -24 56 0 34 -4 42 -26
50 -14 6 -48 8 -75 6 -27 -3 -49 -3 -49 0 0 3 9 19 20 34 24 33 49 109 42 128
-5 16 -28 -13 -75 -98 -31 -55 -37 -61 -37 -38 0 15 9 51 20 80 11 29 20 74
20 100 0 26 5 58 11 72 10 20 7 35 -11 80 -21 51 -22 57 -8 73 9 10 19 28 22
41 9 26 31 29 45 5 13 -25 23 -11 25 34 1 34 -2 38 -25 41 -15 2 -35 12 -45
23 -34 37 -60 16 -29 -25 12 -16 12 -21 -8 -36 -21 -17 -22 -27 -23 -152 0
-73 -5 -155 -12 -183 -14 -62 -21 -124 -21 -193 -1 -61 -19 -76 -54 -44 -39
36 -302 177 -388 207 -25 9 -41 10 -55 2 -37 -20 -45 -47 -14 -47 11 0 52 -22
92 -48 69 -46 198 -109 331 -162 58 -23 117 -78 117 -110 1 -8 7 -31 14 -51
l13 -37 -38 -11 c-20 -6 -45 -8 -55 -4 -12 4 -15 3 -10 -5 17 -28 -12 -10 -68
42 -30 28 -35 29 -114 27 -86 -2 -132 -13 -132 -31 0 -5 10 -11 23 -11 12 -1
45 -3 72 -4 28 -1 74 -6 103 -10 48 -7 54 -10 59 -36 3 -16 9 -29 13 -29 4 0
18 -24 33 -53 32 -66 48 -80 117 -102 69 -22 88 -38 71 -59 -7 -8 -21 -18 -31
-21 -10 -3 -20 -14 -22 -23 -5 -18 -36 -28 -188 -62 -75 -17 -90 -26 -90 -55
0 -25 23 -84 61 -156 27 -51 24 -82 -9 -110 -16 -13 -31 -32 -35 -41 -5 -15
-19 -18 -72 -18 -66 0 -94 -18 -32 -22 17 -1 41 -2 52 -2 11 -1 21 -9 23 -19
3 -13 -3 -17 -24 -17 -50 0 -12 -18 47 -23 30 -2 61 -7 68 -11 7 -5 17 -2 24
7 7 8 21 17 32 20 15 3 13 5 -8 6 l-28 1 27 25 c25 23 26 25 6 25 -29 0 -37
17 -13 29 10 6 26 29 35 51 14 35 20 40 48 40 40 0 98 21 98 35 0 6 -5 16 -12
23 -11 11 -9 13 8 11 4 0 11 5 15 13 5 8 9 -9 9 -44 0 -45 -4 -60 -20 -71 -19
-13 -19 -13 1 -31 12 -10 19 -19 17 -21 -3 -4 -77 -13 -115 -14 -7 -1 -13 -5
-13 -9 0 -4 30 -6 66 -4 41 3 70 0 77 -7 12 -12 12 -12 -55 -14 -26 -1 -52 -7
-58 -13 -8 -8 9 -10 64 -6 l74 5 13 -43 c7 -23 19 -44 26 -47 25 -10 13 -20
-34 -33 -27 -6 -91 -25 -143 -42 -92 -30 -98 -31 -225 -24 -71 4 -219 9 -328
12 -183 5 -202 4 -253 -15 -30 -12 -63 -21 -73 -21 -22 0 -76 -58 -86 -92 -15
-55 -45 -90 -45 -53 0 9 -6 12 -16 8 -12 -4 -15 -1 -12 13 2 10 10 18 16 16 7
-1 12 9 12 23 0 14 -5 25 -11 25 -7 0 -9 10 -7 25 3 14 1 25 -3 25 -5 0 -9 7
-9 16 0 10 7 14 23 12 29 -3 72 37 82 77 4 17 9 53 11 80 l4 50 -21 -45 c-38
-87 -41 -88 -109 -70 -33 9 -40 15 -35 28 16 41 19 62 20 147 2 96 9 130 32
157 13 14 13 20 -1 50 -8 18 -17 51 -21 73 -13 91 -17 104 -31 98 -21 -8 -17
20 6 40 12 10 18 22 15 28 -4 5 1 33 11 60 18 50 18 51 -1 65 -21 16 -65 19
-65 5 0 -5 -3 -17 -7 -27 -4 -11 -2 -15 4 -11 6 4 17 -11 26 -33 9 -22 11 -40
6 -40 -27 0 -48 23 -54 60 -7 44 -22 60 -31 36 -10 -25 -22 -9 -16 21 7 38 45
100 50 82 11 -42 12 -43 35 -21 12 12 36 44 52 71 18 30 46 59 70 73 22 13 77
60 121 105 l81 83 2 60 c1 64 -8 76 -27 35 -7 -14 -17 -37 -24 -51 -19 -41
-125 -155 -236 -255 -56 -51 -111 -107 -122 -124 l-19 -30 6 54 c6 52 5 54
-15 49 -19 -5 -20 -3 -15 25 4 18 24 58 45 91 36 57 41 83 12 72 -20 -8 -18
28 6 74 22 44 45 170 36 205 -7 26 4 49 52 114 17 24 32 50 32 58 0 21 -30 15
-66 -12 -18 -14 -35 -21 -39 -15 -3 5 -12 7 -20 3 -18 -6 -20 13 -2 21 8 3 5
11 -10 24 -13 11 -23 31 -23 44 0 14 -12 35 -26 49 -40 37 -44 58 -32 168 10
93 9 102 -9 124 -23 29 -24 115 -3 160 11 22 20 27 51 27 22 0 41 6 46 14 4 8
19 16 32 18 23 3 24 4 8 20 -10 9 -17 32 -17 52 0 26 -4 36 -15 36 -12 0 -14
7 -9 28 7 29 40 153 57 214 6 21 8 40 4 44 -3 4 -32 -17 -64 -46 -32 -29 -82
-68 -110 -87 -29 -18 -53 -35 -53 -36 0 -3 -70 -201 -100 -282 -23 -65 -36
-95 -81 -193 -16 -35 -29 -65 -29 -67 0 -37 -220 -275 -253 -275 -18 0 -37
-29 -37 -58 0 -10 15 -39 34 -63 18 -24 62 -95 96 -157 50 -89 64 -125 70
-175 5 -34 11 -72 15 -85 9 -27 -7 -28 -75 -8 -30 9 -51 22 -63 42 -10 16 -36
57 -58 92 -21 34 -46 65 -55 69 -9 3 -30 -2 -46 -12 -22 -13 -41 -15 -73 -10
l-44 6 -45 -58 c-25 -32 -46 -63 -46 -69 0 -6 -13 -22 -29 -36 -21 -20 -32
-43 -44 -99 -17 -76 -28 -219 -17 -219 9 0 26 36 41 85 12 39 54 115 64 115 5
0 1 -39 -10 -112 -2 -15 2 -33 9 -40 21 -21 38 -59 33 -72 -3 -7 -1 -19 4 -27
6 -9 9 -10 9 -2 0 7 17 15 38 19 20 4 42 14 49 23 7 9 13 13 13 8 0 -4 13 -1
30 8 16 8 35 14 42 13 7 -2 15 11 18 31 5 36 35 56 58 39 8 -7 17 -6 28 3 13
10 17 10 25 -2 15 -24 10 -39 -15 -48 -28 -11 -42 -41 -24 -52 20 -12 -2 -28
-42 -31 -31 -3 -35 0 -34 20 1 28 -3 28 -49 -4 -21 -14 -62 -29 -93 -34 -30
-5 -61 -16 -70 -25 -8 -8 -22 -15 -31 -15 -8 0 -30 -7 -49 -16 -19 -9 -37 -14
-40 -11 -10 10 17 49 31 43 7 -2 21 4 31 15 16 18 17 21 1 36 -23 24 -59 24
-80 0 -14 -16 -17 -17 -17 -4 0 10 -10 17 -27 19 -24 3 -29 9 -35 43 -3 22
-11 58 -16 80 -5 22 -13 57 -16 77 -4 21 -11 38 -16 38 -13 0 1 -200 19 -255
22 -68 17 -103 -16 -111 -28 -7 -53 14 -53 45 -1 9 -17 28 -38 42 -53 37 -91
98 -109 174 -14 61 -14 72 2 127 9 33 32 81 52 106 19 25 53 82 75 126 36 72
78 135 115 174 33 34 72 102 83 142 6 25 20 70 30 100 24 72 47 148 71 240 31
118 119 328 166 399 l44 65 -21 16 c-24 18 -36 79 -26 134 4 21 28 62 56 98
28 33 50 66 50 73 0 6 29 37 63 67 60 53 65 61 85 135 49 178 72 287 72 341 0
109 27 241 67 330 13 29 23 63 22 75 -6 53 31 131 128 270 55 79 90 113 183
180 86 62 177 106 217 107 29 0 46 31 34 63 -13 33 12 44 46 22 18 -12 23 -24
21 -43 -4 -36 21 -40 60 -7 16 14 42 25 57 25 18 0 41 14 72 45 25 25 51 44
57 42 6 -2 16 -18 21 -35 11 -32 11 -32 25 31 16 70 14 116 -5 167 -87 234
-108 292 -122 335 -20 66 -22 69 -42 51 -10 -9 -31 -19 -48 -22 -24 -5 -35 -1
-52 17 -11 12 -21 33 -21 46 0 12 -11 47 -24 78 l-25 55 22 0 c11 0 32 -11 46
-24 15 -14 38 -27 52 -31 23 -6 27 -3 31 20 3 15 -3 60 -13 101 -19 77 -39
295 -32 354 2 19 9 64 14 100 11 70 2 210 -13 210 -20 0 -78 65 -78 87 0 13
-4 23 -9 23 -11 0 -22 -49 -26 -110 -1 -25 -9 -61 -17 -80 -8 -19 -18 -44 -22
-55 -6 -16 -9 -17 -16 -5 -17 28 -22 110 -9 160 14 55 8 70 -17 49 -16 -13
-17 -12 -10 11 4 14 9 45 10 70 2 25 7 54 13 65 5 11 23 47 38 80 28 59 97
168 121 193 12 11 34 17 34 8 0 -2 -6 -19 -14 -37 -11 -28 -12 -39 -2 -57 12
-22 13 -21 42 35 22 44 35 59 54 61 14 2 33 13 43 23 25 26 38 20 61 -27 14
-28 21 -34 24 -22 2 10 -6 30 -17 44 -12 15 -21 31 -21 36 0 5 -9 18 -19 30
-18 19 -18 22 -4 36 25 25 127 41 139 21z m8752 -159 c6 0 12 -4 12 -10 0 -15
-43 -12 -68 6 -31 21 -18 36 16 18 15 -7 33 -14 40 -14z m-5873 -66 c109 -2
212 -6 229 -9 28 -6 92 -43 122 -70 41 -37 65 -55 73 -55 5 0 27 -19 50 -42
51 -52 68 -102 52 -149 -15 -43 -14 -96 4 -144 8 -24 14 -79 15 -136 0 -175
-53 -286 -184 -385 -22 -16 -59 -60 -83 -98 -54 -83 -75 -106 -131 -141 -49
-30 -164 -57 -202 -48 -44 10 -81 33 -210 129 -202 151 -233 176 -283 234 -53
62 -81 138 -92 254 -4 38 -13 93 -21 123 -26 101 -11 253 25 253 9 0 23 103
25 190 2 85 44 132 71 80 10 -19 11 -30 5 -30 -6 0 -4 -7 4 -16 9 -8 16 -20
16 -26 0 -7 16 -8 48 -3 26 4 71 6 100 5 108 -3 142 26 127 106 l-6 37 23 -28
24 -28 199 -3z m-2782 -167 c-4 -45 -9 -73 -14 -65 -4 7 -5 60 -1 118 5 85 7
98 13 65 4 -22 5 -75 2 -118z m8177 112 c0 -6 -4 -7 -10 -4 -5 3 -10 11 -10
16 0 6 5 7 10 4 6 -3 10 -11 10 -16z m465 -17 c-6 -4 -16 -19 -24 -34 -13 -25
-41 -39 -41 -21 0 11 53 63 64 63 7 0 8 -3 1 -8z m-15 -91 c-6 -12 -15 -21
-21 -21 -6 0 -6 7 1 20 6 11 8 20 4 20 -3 0 0 7 7 17 13 15 14 15 17 0 2 -9
-2 -25 -8 -36z m240 -20 c0 -10 -6 -21 -14 -24 -15 -6 -16 9 -3 31 11 17 17
15 17 -7z m-4633 -77 c-3 -3 -12 -4 -19 -1 -8 3 -5 6 6 6 11 1 17 -2 13 -5z
m4343 -50 c0 -8 -4 -12 -10 -9 -5 3 -10 13 -10 21 0 8 5 12 10 9 6 -3 10 -13
10 -21z m2393 -4 c-10 -11 -18 -20 -19 -20 -1 0 0 9 3 20 3 11 12 20 19 20 11
0 10 -5 -3 -20z m27 -40 c18 -11 5 -27 -25 -32 -14 -2 -21 3 -23 20 -4 24 20
30 48 12z m-11470 -26 c0 -8 -4 -14 -10 -14 -5 0 -10 9 -10 21 0 11 5 17 10
14 6 -3 10 -13 10 -21z m11164 -3 c7 -11 -18 -33 -27 -24 -4 3 -7 0 -7 -7 0
-9 -6 -7 -19 6 -12 13 -15 21 -7 26 15 11 54 10 60 -1z m-944 -37 c0 -22 -2
-24 -14 -14 -8 6 -12 18 -9 26 9 23 23 16 23 -12z m885 -27 c5 -1 15 -14 22
-29 11 -25 15 -27 37 -18 29 11 59 3 53 -14 -2 -6 -16 -15 -30 -20 -21 -8 -30
-6 -39 7 -12 16 -16 16 -66 0 -66 -21 -105 -11 -110 30 -3 21 1 27 15 27 11 0
28 7 39 15 11 9 29 13 44 9 13 -3 29 -6 35 -7z m-4089 -86 l11 -33 15 23 15
23 5 -22 c4 -13 2 -20 -3 -16 -12 7 -49 -33 -49 -53 0 -8 -5 -11 -10 -8 -6 4
-8 10 -5 15 3 5 1 11 -4 15 -6 3 -8 11 -5 19 3 7 0 24 -5 38 -5 14 -7 29 -3
32 12 12 27 -1 38 -33z m3135 0 l24 -20 -25 -9 c-22 -8 -60 -5 -60 5 0 11 22
43 29 43 5 0 19 -9 32 -19z m-3054 -13 c-3 -8 -6 -5 -6 6 -1 11 2 17 5 13 3
-3 4 -12 1 -19z m3128 2 c0 -9 -7 -14 -20 -12 -26 5 -29 8 -20 22 10 16 40 8
40 -10z m-3148 -62 c-3 -7 -5 -2 -5 12 0 14 2 19 5 13 2 -7 2 -19 0 -25z m-70
-50 c-3 -8 -6 -5 -6 6 -1 11 2 17 5 13 3 -3 4 -12 1 -19z m-17 -107 c-12 -22
-23 21 -14 56 l8 28 7 -35 c4 -19 4 -41 -1 -49z m2703 65 c23 -18 23 -46 -1
-39 -10 2 -35 -5 -56 -16 -73 -41 -116 -11 -58 41 35 31 84 37 115 14z m854
-119 c11 -106 21 -156 68 -337 26 -100 11 -133 -30 -67 -11 18 -28 32 -37 32
-9 0 -24 7 -35 16 -10 9 -24 14 -31 12 -7 -3 -23 -2 -35 1 -19 4 -23 13 -25
64 -2 46 5 81 32 164 26 77 33 112 28 133 -10 38 -32 45 -32 11 0 -15 -11 -53
-25 -86 -14 -33 -26 -72 -28 -87 -2 -16 -14 -61 -27 -102 l-23 -73 -44 6 c-32
4 -54 16 -80 41 -40 39 -51 42 -59 20 -9 -22 -43 -18 -93 10 -23 14 -47 25
-53 25 -28 0 -121 57 -131 80 -13 31 -38 201 -31 212 8 12 42 10 54 -4 6 -7
18 -22 26 -33 15 -19 15 -19 11 6 -4 31 -7 30 176 49 163 18 201 5 226 -80 17
-58 35 -52 28 10 -5 40 -3 50 8 50 8 0 15 4 15 9 0 13 82 40 115 37 18 -1 21
-13 32 -119z m-9381 55 c6 -4 13 -15 17 -24 6 -16 -2 -18 -86 -18 l-92 1 45
24 c45 24 95 31 116 17z m10154 -12 c0 -11 -7 -20 -15 -20 -15 0 -21 21 -8 33
12 13 23 7 23 -13z m-63 -26 c6 -17 -15 -36 -30 -27 -4 3 -16 -2 -26 -11 -26
-23 -127 -42 -145 -27 -10 8 -16 9 -21 1 -8 -13 -25 -3 -25 14 0 14 46 27 94
26 15 0 35 5 42 11 8 6 25 9 38 5 15 -4 28 0 36 9 16 19 29 19 37 -1z m-265
-46 c-11 -11 -32 -3 -32 12 0 4 9 6 21 3 13 -4 17 -9 11 -15z m362 13 c3 -4
-3 -19 -14 -31 -11 -13 -20 -27 -20 -31 0 -13 -62 -38 -100 -41 -54 -4 -45 22
13 37 50 13 87 39 87 62 0 14 26 18 34 4z m16 -84 c0 -16 -56 -78 -90 -99 -41
-24 -92 -30 -117 -13 -18 13 -26 13 -42 3 -11 -7 -23 -9 -27 -6 -13 14 7 25
54 31 70 8 156 41 189 71 32 30 33 30 33 13z m-280 -23 c0 -10 -11 -13 -35
-11 -24 1 -35 7 -35 17 0 12 8 15 35 12 21 -3 35 -10 35 -18z m70 2 c0 -18
-31 -29 -44 -16 -8 8 -7 14 4 20 22 14 40 12 40 -4z m-11111 -56 c0 -9 -6 -4
-14 10 -19 33 -19 49 0 24 8 -10 14 -26 14 -34z m9455 -19 c3 -5 -1 -11 -9
-15 -9 -3 -15 0 -15 9 0 16 16 20 24 6z m-2289 -112 c9 -39 -10 -78 -37 -76
-17 1 -18 6 -13 35 7 36 25 72 37 72 3 0 9 -14 13 -31z m-4790 -137 c13 -74
12 -92 -4 -92 -13 0 -51 89 -51 120 0 16 5 41 11 57 9 26 11 26 21 10 5 -10
16 -53 23 -95z m4912 91 c4 -12 -25 -26 -38 -18 -11 7 12 35 25 31 6 -1 11 -7
13 -13z m3101 -118 c20 -20 53 -45 72 -55 53 -27 90 -105 94 -197 1 -18 5 -35
8 -38 5 -6 -8 -95 -16 -103 -11 -10 -26 12 -26 39 0 18 4 28 10 24 13 -8 13
16 1 48 -6 14 -21 27 -36 31 -16 4 -37 24 -55 53 -16 25 -40 51 -52 57 -13 6
-27 26 -33 45 -9 30 -12 32 -42 28 -18 -3 -35 -1 -38 4 -4 5 -15 9 -25 9 -21
0 -25 4 -33 41 -6 22 -2 28 26 42 49 26 100 16 145 -28z m-3284 0 c7 -18 -10
-65 -23 -65 -19 0 -41 13 -41 24 0 18 30 56 44 56 8 0 16 -7 20 -15z m-4620
-67 c10 -26 28 -63 42 -83 13 -20 24 -40 24 -44 0 -19 -29 -18 -55 2 -36 30
-55 78 -55 145 0 48 2 54 13 42 8 -8 22 -36 31 -62z m204 40 c4 -19 -24 -31
-45 -20 -13 8 -13 11 2 26 20 19 39 17 43 -6z m7512 12 c0 -5 -7 -10 -16 -10
-8 0 -12 5 -9 10 3 6 10 10 16 10 5 0 9 -4 9 -10z m-10818 -31 c9 -5 26 -9 37
-9 12 0 21 -4 21 -8 0 -4 21 -14 48 -21 26 -8 54 -18 62 -22 8 -4 36 -17 62
-28 25 -11 49 -25 53 -31 3 -6 11 -7 17 -4 7 5 9 2 5 -8 -3 -9 0 -24 7 -34 13
-17 15 -16 44 12 19 20 58 39 111 57 84 28 144 37 109 16 -19 -11 -13 -39 8
-39 29 0 26 -33 -9 -103 -71 -143 -77 -160 -67 -203 14 -58 12 -79 -8 -104
-28 -35 -59 -19 -73 36 -6 24 -15 47 -20 50 -12 7 -11 -22 0 -44 5 -9 17 -35
26 -57 9 -22 23 -52 31 -67 14 -27 14 -28 -7 -28 -27 0 -88 37 -113 68 -20 25
-65 47 -75 36 -3 -3 7 -16 24 -29 39 -32 25 -43 -19 -16 -44 28 -86 77 -86
101 0 10 -24 40 -54 65 -51 44 -67 70 -124 195 -30 64 -102 233 -102 237 0 6
73 -9 92 -18z m4244 -6 c15 -57 -37 -153 -81 -153 -11 0 -29 -7 -39 -15 -14
-11 -23 -12 -32 -4 -7 6 -33 11 -58 11 -25 0 -48 4 -52 9 -3 5 0 9 5 9 6 0 11
7 11 15 0 8 7 15 15 15 8 0 15 5 15 10 0 14 72 80 87 80 7 0 13 4 13 10 0 13
59 38 88 37 15 -1 25 -9 28 -24z m6544 -4 c0 -4 -5 -9 -12 -11 -6 -2 -8 -11
-4 -19 19 -38 34 -60 42 -61 5 -1 19 -14 31 -31 12 -16 42 -51 67 -77 51 -53
47 -61 -27 -53 -41 5 -47 9 -52 35 -4 16 -13 41 -21 56 -8 15 -14 32 -14 39 0
6 -13 16 -30 22 -16 5 -30 14 -30 19 0 6 -8 9 -17 8 -10 0 -19 7 -21 18 -3 15
0 18 18 13 13 -3 23 0 26 9 2 8 6 20 8 27 4 14 36 19 36 6z m-7015 -74 c17 -2
48 -10 70 -19 22 -8 50 -15 62 -16 35 0 34 -13 -3 -49 -29 -29 -39 -33 -70
-28 -20 3 -41 12 -48 20 -6 8 -36 27 -66 43 -57 30 -70 41 -70 60 0 8 14 8 48
2 26 -5 61 -11 77 -13z m-452 -93 c30 -29 35 -57 11 -66 -25 -10 -54 3 -54 23
0 10 -13 22 -34 29 -33 12 -34 14 -24 42 10 29 10 30 41 14 18 -9 44 -28 60
-42z m-257 -82 c6 -6 49 -17 95 -25 45 -8 87 -19 91 -23 12 -12 -11 -60 -31
-65 -39 -8 -138 26 -183 63 -49 41 -58 52 -58 70 0 19 2 20 37 5 20 -9 42 -20
49 -25z m7952 -48 c54 -50 64 -85 34 -122 -25 -31 -58 -20 -67 22 -6 24 -3 35
10 44 15 11 16 16 5 29 -7 8 -17 15 -23 15 -11 0 -36 30 -37 44 0 16 49 -4 78
-32z m-10258 19 c0 -17 -43 -85 -62 -99 -10 -7 -18 -20 -18 -28 0 -8 -11 -27
-25 -42 l-25 -27 25 -18 c40 -29 31 -107 -12 -107 -28 0 -53 39 -53 84 0 27
-6 48 -15 56 -19 16 -15 32 8 36 19 3 23 -12 5 -18 -13 -5 -2 -28 12 -28 6 0
27 26 47 58 21 31 41 59 46 60 4 2 7 9 7 16 0 14 41 64 53 65 4 1 7 -3 7 -8z
m2664 -20 c9 -14 -4 -41 -19 -41 -18 0 -28 17 -21 35 6 17 32 20 40 6z m4966
-6 c-9 -11 -11 -35 -6 -85 4 -46 2 -78 -5 -93 -7 -12 -15 -29 -19 -37 -9 -20
-103 -25 -153 -9 -31 10 -36 16 -31 33 7 25 43 55 65 56 19 0 65 42 104 95 26
37 44 54 54 55 2 0 -2 -7 -9 -15z m628 -32 c2 -9 -8 -13 -32 -13 -28 0 -34 3
-29 16 7 18 54 16 61 -3z m1718 -114 c12 0 58 -59 52 -65 -8 -7 -98 81 -98 96
0 8 8 4 19 -8 10 -12 22 -22 27 -23z m246 -151 c-6 -6 -15 -8 -19 -4 -4 4 -1
11 7 16 19 12 27 3 12 -12z m63 12 c3 -6 -4 -10 -17 -10 -18 0 -20 2 -8 10 19
12 18 12 25 0z m-105 -10 c12 -8 11 -10 -7 -10 -13 0 -23 5 -23 10 0 13 11 13
30 0z m-5843 -816 c18 -22 33 -44 33 -50 0 -6 7 -25 16 -43 9 -17 19 -55 23
-84 8 -55 20 -83 57 -132 12 -16 24 -43 26 -60 l3 -30 -65 3 c-36 2 -69 8 -74
13 -6 5 -68 6 -140 3 -81 -4 -159 -2 -203 5 -50 8 -94 8 -140 2 -71 -10 -135
-15 -388 -31 -82 -5 -215 -15 -295 -21 -182 -14 -718 -20 -726 -8 -3 5 -27 9
-55 9 -27 0 -58 5 -69 12 -17 11 -24 8 -49 -16 -16 -15 -31 -23 -35 -18 -3 5
4 45 15 88 18 66 21 104 20 232 l-2 154 73 -7 c40 -3 253 -7 474 -8 320 -2
404 1 417 11 13 11 99 13 436 11 231 -2 424 1 428 5 4 5 48 6 98 3 89 -5 89
-5 122 -43z m-5357 -56 c0 -4 -7 -5 -15 -2 -8 4 -15 16 -15 28 1 21 1 21 15 2
8 -11 15 -23 15 -28z m-896 -63 c7 -27 6 -29 -9 -14 -9 9 -13 23 -9 33 8 21 9
19 18 -19z m206 5 c0 -10 -4 -22 -10 -25 -6 -4 -10 7 -10 25 0 18 4 29 10 25
6 -3 10 -15 10 -25z m110 -61 c0 -16 -31 -38 -53 -39 -22 0 -12 -20 10 -20 9
0 27 -10 40 -22 18 -17 26 -19 35 -10 21 21 66 14 84 -13 9 -14 23 -25 31 -25
10 0 14 -7 10 -20 -5 -20 -5 -20 23 0 32 23 41 17 33 -22 -6 -33 -30 -44 -52
-24 -10 9 -26 13 -38 10 -16 -4 -31 3 -55 26 -32 31 -121 80 -145 80 -13 0
-38 68 -29 77 3 4 17 1 30 -6 25 -14 51 -7 41 10 -4 5 3 9 14 9 12 0 21 -5 21
-11z m-253 -56 c-3 -10 -5 -2 -5 17 0 19 2 27 5 18 2 -10 2 -26 0 -35z m799
-139 c-25 -50 -62 -69 -104 -52 -57 23 -72 32 -72 45 0 8 -12 13 -30 13 -16 0
-30 5 -30 10 0 16 56 12 71 -6 7 -8 25 -22 41 -30 27 -14 30 -13 70 25 24 22
50 39 59 38 14 -1 14 -6 -5 -43z m5463 -376 c5 -13 19 -32 31 -43 50 -45 97
-193 85 -270 -9 -61 8 -114 63 -198 54 -84 76 -123 86 -154 13 -42 -13 -24
-78 55 -63 76 -65 78 -128 90 -34 7 -82 17 -105 23 -23 5 -62 9 -87 9 -25 0
-46 5 -46 10 0 6 -17 10 -37 9 -21 0 -33 -2 -28 -4 84 -28 159 -50 195 -55 82
-14 165 -40 178 -58 6 -9 25 -30 41 -47 57 -60 103 -128 108 -162 4 -23 16
-42 35 -56 28 -21 30 -25 26 -79 -2 -32 -7 -60 -10 -63 -3 -3 -38 -8 -79 -10
-41 -3 -86 -10 -101 -16 -17 -7 -52 -8 -105 -2 -43 5 -159 9 -258 8 -178 0
-181 0 -310 -38 -71 -21 -143 -44 -158 -51 l-28 -13 28 -6 c33 -6 140 5 238
26 39 8 120 18 181 22 100 6 122 4 222 -20 81 -19 129 -37 179 -67 86 -53 102
-72 103 -125 0 -43 -6 -49 -47 -44 -15 2 -16 -9 -4 -41 12 -32 22 -188 12
-188 -5 0 -19 8 -32 18 -13 10 -32 22 -42 25 -15 6 -16 3 -7 -12 11 -22 -2
-108 -25 -156 -34 -74 -59 -274 -70 -574 -5 -131 -8 -158 -25 -181 -11 -16
-20 -33 -20 -39 0 -6 -4 -11 -9 -11 -12 0 -23 -29 -15 -41 3 -5 14 -5 25 2 42
22 55 19 72 -19 30 -70 53 -434 29 -465 -5 -7 -10 -29 -10 -51 -1 -21 -10 -57
-21 -80 -11 -22 -22 -56 -26 -73 -4 -18 -12 -31 -18 -30 -16 3 -19 -82 -5
-111 9 -18 9 -30 -2 -55 -7 -18 -14 -59 -15 -92 0 -33 -6 -70 -13 -82 -7 -12
-12 -40 -12 -62 0 -23 -5 -41 -11 -41 -5 0 -9 -12 -8 -28 3 -44 0 -64 -10 -57
-6 3 -15 -3 -20 -14 -10 -17 -55 -37 -75 -32 -4 1 -20 -6 -35 -16 -43 -29 -72
-43 -90 -43 -9 0 -22 -5 -29 -12 -14 -14 -49 26 -71 81 -8 20 -32 54 -52 75
l-37 40 -13 -42 c-9 -32 -9 -46 -1 -54 8 -8 7 -20 -3 -46 -22 -51 -19 -77 10
-90 38 -18 120 -15 140 4 8 9 22 14 29 11 8 -3 17 -3 20 1 7 6 29 10 86 16 19
2 51 9 70 14 91 26 180 56 235 78 73 29 84 30 60 4 -22 -25 -79 -56 -167 -94
-66 -27 -81 -40 -56 -48 16 -6 -66 -31 -167 -53 -44 -10 -105 -23 -135 -30
-34 -8 -59 -10 -64 -4 -6 5 -20 9 -33 9 -29 0 -72 19 -100 44 -28 24 -29 55
-4 144 28 100 37 119 69 142 23 17 29 29 26 49 -22 168 -38 273 -54 361 -32
177 -37 229 -39 405 -1 94 -7 188 -12 210 -16 64 -31 107 -49 150 -28 63 -38
94 -59 183 -12 46 -28 100 -37 120 -25 56 -84 171 -116 225 -15 26 -38 78 -50
115 -18 56 -19 72 -10 107 6 22 7 43 3 48 -13 13 -43 -31 -56 -80 -7 -26 -18
-49 -25 -51 -12 -4 -11 39 6 131 4 26 2 44 -10 62 -15 23 -15 27 3 63 29 57
123 138 252 219 63 39 123 81 133 92 19 21 19 21 0 21 -10 0 -54 -13 -96 -29
-86 -32 -91 -29 -24 14 25 16 44 30 42 32 -2 2 -41 -5 -87 -16 -91 -21 -285
-51 -363 -55 -47 -2 -53 1 -145 69 -99 74 -140 100 -147 92 -2 -2 12 -18 32
-36 55 -51 33 -48 -47 6 -113 76 -117 78 -126 69 -4 -4 2 -15 15 -25 12 -9 80
-61 151 -116 71 -55 165 -128 210 -162 91 -71 108 -96 115 -176 2 -31 7 -61
11 -67 9 -15 -16 -130 -29 -130 -6 0 -26 29 -44 64 -19 36 -49 77 -68 91 -27
20 -32 22 -27 8 3 -10 12 -27 20 -38 20 -30 16 -50 -19 -87 -18 -19 -46 -53
-61 -76 -19 -29 -39 -44 -64 -51 -43 -12 -49 -9 -57 25 -8 29 -28 54 -45 54
-11 0 -41 -51 -41 -69 0 -6 -12 -36 -26 -67 -14 -31 -37 -106 -51 -168 -13
-61 -29 -115 -34 -120 -5 -6 -9 -18 -9 -28 0 -10 -3 -18 -8 -18 -4 0 -18 -18
-32 -39 -17 -29 -34 -42 -61 -49 -22 -6 -41 -6 -46 -1 -16 16 -69 27 -85 18
-10 -6 -25 -4 -39 4 -19 10 -24 20 -24 54 0 23 3 44 7 48 4 4 -2 17 -13 28
-17 19 -24 20 -67 10 -69 -16 -128 -10 -160 15 -15 12 -37 27 -48 33 -26 14
-38 37 -76 159 -29 92 -30 99 -24 238 6 163 15 191 83 260 50 51 55 62 14 32
-38 -26 -94 -85 -103 -108 -4 -9 -7 18 -7 61 -1 75 -2 78 -23 75 -19 -2 -23 1
-21 22 4 52 16 86 44 115 23 24 59 99 59 122 0 3 -16 -9 -35 -26 -41 -35 -61
-38 -104 -14 -23 13 -29 23 -25 39 3 12 -1 26 -10 33 -12 10 -16 31 -16 76 0
75 6 95 30 95 10 0 40 6 66 14 27 8 71 20 97 28 47 12 50 16 76 78 16 36 43
90 62 120 19 31 39 64 45 75 6 11 17 20 24 20 7 0 27 14 44 30 17 17 42 38 56
47 l25 17 -35 0 c-38 1 -80 -22 -80 -43 0 -8 -6 -19 -14 -25 -11 -10 -19 -5
-40 22 -33 44 -34 94 -2 173 23 57 57 185 71 269 4 22 14 51 22 63 13 21 20
23 51 17 21 -5 72 -7 115 -6 42 1 139 -5 213 -15 122 -15 166 -16 413 -5 152
6 310 16 351 22 41 6 127 14 190 19 63 5 196 18 295 30 290 35 309 37 328 38
10 1 21 -8 26 -20z m3302 -73 c1 -17 -18 -17 -25 0 -4 11 -1 15 10 13 8 -2 15
-7 15 -13z m-9387 -45 c-9 -16 -25 -37 -37 -45 -20 -14 -22 -14 -29 2 -3 10
-7 28 -7 41 -1 21 2 23 28 17 17 -3 32 -2 36 4 15 25 22 9 9 -19z m-244 -21
c0 -26 -3 -30 -17 -24 -10 3 -30 9 -46 12 -36 7 -45 23 -13 23 14 0 28 5 31
10 3 6 15 10 26 10 15 0 19 -7 19 -31z m12370 -68 c0 -6 -4 -13 -10 -16 -5 -3
-10 1 -10 9 0 9 5 16 10 16 6 0 10 -4 10 -9z m-10910 -181 c0 -24 -21 -70 -32
-70 -10 0 -11 74 -1 83 13 14 33 6 33 -13z m5980 -145 c11 -57 -6 -68 -60 -40
-38 20 -38 31 2 55 41 24 52 22 58 -15z m2130 -48 c0 -24 -7 -52 -16 -63 -14
-18 -15 -15 -9 35 9 82 25 100 25 28z m-2070 -41 c0 -9 -30 -14 -35 -6 -4 6 3
10 14 10 12 0 21 -2 21 -4z m1918 -28 c32 -32 -11 -83 -63 -74 -39 7 -41 12
-14 51 25 36 55 45 77 23z m-213 -109 c11 -17 -1 -21 -15 -4 -8 9 -8 15 -2 15
6 0 14 -5 17 -11z m3883 -185 c29 -14 50 -30 47 -35 -4 -5 2 -6 12 -2 10 3 15
3 11 -2 -4 -4 -3 -14 3 -22 9 -9 8 -13 0 -13 -6 0 -11 4 -11 8 0 4 -12 9 -26
10 -59 5 -104 23 -123 51 -12 16 -21 32 -21 36 0 11 50 -3 108 -31z m-9258 -3
c-12 -44 -26 -65 -34 -53 -7 11 24 81 36 82 4 0 3 -13 -2 -29z m3140 -280 c0
-5 -10 -16 -22 -24 l-23 -16 31 0 c17 -1 33 -4 37 -7 6 -7 -29 -38 -75 -67
-18 -11 -28 -26 -28 -41 0 -19 -4 -23 -19 -19 -28 7 -74 -26 -68 -49 3 -10 1
-21 -5 -24 -5 -3 -7 -12 -4 -20 3 -8 -1 -14 -9 -14 -8 0 -15 -7 -15 -15 0 -10
-10 -15 -27 -15 -18 -1 -35 -10 -46 -25 -15 -22 -16 -25 -2 -25 21 0 19 -5
-19 -43 -19 -19 -48 -53 -65 -77 -34 -47 -39 -36 -16 30 8 23 15 53 15 66 0
16 18 42 49 73 57 56 84 98 57 88 -11 -5 -16 -1 -16 12 0 36 13 52 59 75 25
13 56 36 68 50 12 14 34 28 48 32 14 3 22 11 18 17 -4 6 -1 7 7 2 10 -6 11 -2
6 19 -6 24 -4 26 29 26 19 0 35 -4 35 -9z m-3245 -48 c74 -9 87 -16 203 -124
31 -30 42 -48 42 -69 0 -36 -6 -37 -32 -5 -21 26 -118 95 -135 95 -6 0 -26 13
-45 28 -20 15 -55 36 -79 47 -55 24 -52 22 -44 35 4 6 14 8 24 5 9 -4 39 -9
66 -12z m9176 -90 c8 -10 23 -38 32 -61 l17 -42 -58 0 c-31 0 -89 -7 -127 -16
-39 -9 -85 -18 -102 -21 -18 -3 -33 -9 -33 -14 0 -13 -34 -11 -62 4 -14 7 -22
19 -20 30 6 30 -14 19 -31 -18 -9 -20 -12 -35 -6 -35 5 0 0 -10 -11 -22 -15
-16 -23 -19 -28 -11 -5 8 -14 3 -27 -17 l-19 -28 -22 26 -23 26 22 19 c12 10
21 25 19 31 -3 15 45 66 63 66 6 0 20 9 29 19 10 11 32 25 49 31 18 7 41 16
52 20 75 30 226 53 255 39 8 -4 22 -16 31 -26z m-13080 -6 c-10 -9 -11 -8 -5
6 3 10 9 15 12 12 3 -3 0 -11 -7 -18z m13433 -18 c25 -11 51 -17 57 -14 6 4
19 -1 30 -11 15 -13 19 -30 19 -81 l0 -64 -51 4 c-28 2 -57 11 -64 18 -23 24
-58 169 -41 169 2 0 24 -9 50 -21z m-6364 -43 c0 -3 -4 -8 -10 -11 -5 -3 -10
-1 -10 4 0 6 5 11 10 11 6 0 10 -2 10 -4z m2075 -6 c143 -25 224 -60 287 -124
61 -63 81 -115 76 -203 -2 -48 -8 -77 -17 -82 -7 -5 -10 -14 -6 -20 4 -7 2
-17 -3 -24 -17 -22 -31 -77 -43 -165 -7 -56 -21 -104 -38 -137 -29 -56 -113
-145 -136 -145 -8 0 -32 -9 -52 -20 -30 -16 -57 -20 -131 -20 -73 0 -94 -3
-98 -15 -4 -8 -13 -15 -20 -15 -32 0 -62 -32 -79 -85 -16 -51 -35 -69 -50 -45
-3 6 -17 10 -30 10 -13 0 -33 12 -47 28 -13 15 -30 31 -38 34 -9 3 -22 38 -33
89 -10 46 -27 103 -38 126 -10 24 -19 48 -19 55 -1 20 -36 91 -56 113 -49 52
-63 150 -35 227 93 246 180 348 346 407 56 20 179 25 260 11z m3077 -17 c9
-10 21 -35 28 -56 21 -67 -5 -62 -51 11 -15 25 -26 49 -23 53 9 14 30 10 46
-8z m-12160 -18 c0 -5 -5 -11 -11 -13 -6 -2 -11 4 -11 13 0 9 5 15 11 13 6 -2
11 -8 11 -13z m2855 -32 c-3 -10 -5 -2 -5 17 0 19 2 27 5 18 2 -10 2 -26 0
-35z m4356 19 c10 -1 15 -6 12 -12 -3 -5 -2 -10 4 -10 5 0 13 4 16 10 9 15 63
0 140 -38 86 -42 137 -82 165 -128 19 -30 21 -43 15 -107 -9 -97 -62 -344 -83
-387 -9 -19 -27 -43 -40 -54 -13 -10 -21 -25 -18 -32 3 -8 0 -13 -7 -11 -8 1
-11 -11 -9 -38 2 -22 5 -61 7 -87 2 -26 6 -52 10 -57 3 -6 0 -14 -9 -17 -13
-5 -38 -54 -40 -80 -1 -6 -7 -18 -14 -26 -6 -8 -14 -28 -16 -44 -3 -16 -14
-65 -25 -109 -12 -44 -21 -93 -22 -110 0 -16 -4 -39 -8 -50 -5 -11 -5 -25 0
-31 11 -14 14 -100 5 -204 -8 -101 -12 -116 -40 -155 -11 -16 -19 -31 -16 -32
10 -4 -30 -43 -44 -43 -8 0 -23 -11 -34 -25 -12 -14 -30 -25 -44 -25 -14 0
-28 -3 -32 -7 -14 -14 -190 -2 -199 13 -5 8 -12 12 -17 9 -5 -3 -14 4 -20 15
-6 11 -19 20 -29 20 -33 0 -59 75 -64 181 -3 52 -7 101 -10 109 -5 13 -14 190
-32 647 -3 73 -12 187 -20 255 -18 156 -19 229 0 298 22 84 71 174 116 215 30
27 38 39 29 45 -19 12 -4 40 20 40 12 0 34 7 50 15 27 14 30 14 30 0 0 -8 7
-15 16 -15 10 0 14 6 10 15 -3 10 1 15 12 15 10 0 23 5 30 12 6 6 27 11 46 10
19 -1 37 2 40 6 4 7 67 9 119 4z m-4324 -175 c-12 -38 -13 -38 -25 -15 -19 34
-17 62 9 105 l22 38 3 -45 c2 -25 -2 -62 -9 -83z m9541 -118 c0 -8 -6 -23 -12
-32 -11 -15 -13 -10 -14 32 0 43 1 48 12 33 8 -9 14 -24 14 -33z m1028 -32 c3
-40 -12 -51 -22 -14 -10 36 -7 59 7 55 6 -3 13 -21 15 -41z m-12728 -32 c0 -8
-7 -15 -15 -15 -16 0 -20 12 -8 23 11 12 23 8 23 -8z m107 -51 c-9 -9 -28 6
-21 18 4 6 10 6 17 -1 6 -6 8 -13 4 -17z m743 4 c0 -18 -2 -20 -9 -8 -6 8 -7
18 -5 22 9 14 14 9 14 -14z m17 -70 c-3 -8 -6 -5 -6 6 -1 11 2 17 5 13 3 -3 4
-12 1 -19z m-567 2 c0 -5 -4 -10 -9 -10 -6 0 -13 5 -16 10 -3 6 1 10 9 10 9 0
16 -4 16 -10z m-57 -130 c-3 -11 -9 -20 -14 -20 -5 0 -9 9 -9 20 0 11 6 20 14
20 9 0 12 -7 9 -20z m11038 -10 c46 -6 94 -13 106 -15 25 -6 39 -43 47 -127 3
-31 12 -74 19 -95 25 -69 37 -109 37 -126 0 -9 6 -17 13 -17 29 0 117 -367
115 -480 -1 -66 22 -511 26 -519 5 -8 14 -133 19 -248 0 -9 18 -13 51 -13 64
0 72 -6 73 -54 1 -47 17 -78 63 -129 32 -36 35 -37 42 -17 7 19 14 21 115 18
l108 -3 3 -72 3 -72 51 -11 c64 -13 68 -9 68 88 l0 72 110 0 109 0 3 -84 3
-84 37 16 c48 21 88 103 88 183 0 19 7 43 15 53 14 18 15 15 15 -38 0 -31 -5
-78 -11 -104 -13 -50 -75 -142 -96 -142 -7 0 -13 -7 -13 -15 0 -8 -7 -15 -15
-15 -18 0 -19 -12 -3 -28 9 -9 8 -12 -5 -12 -10 0 -17 -8 -17 -20 0 -24 9 -26
24 -5 8 10 16 12 26 5 12 -8 9 -12 -17 -22 l-32 -12 -3 -111 -3 -110 -71 -3
c-67 -3 -71 -2 -82 22 l-11 26 -37 -25 c-70 -47 -203 -48 -273 -2 -72 48 -85
87 -89 273 l-4 162 -44 33 c-24 18 -44 37 -44 43 0 5 -3 6 -7 2 -5 -4 -10
-125 -13 -269 l-5 -262 -71 -3 c-68 -3 -71 -2 -83 24 -11 24 -13 25 -29 11
-39 -35 -100 -50 -187 -45 -71 4 -91 9 -132 34 -162 100 -176 356 -25 483 l50
42 -33 34 c-19 18 -31 36 -28 39 4 3 2 6 -4 6 -12 0 -38 95 -34 123 3 19 -38
87 -51 87 -5 0 -8 7 -8 15 0 20 -16 57 -124 286 -14 31 -26 61 -26 67 0 7 -4
12 -9 12 -5 0 -13 10 -17 22 -3 12 -13 37 -22 57 -8 20 -16 47 -18 60 -2 13
-8 29 -13 34 -6 6 -11 26 -11 44 0 18 -4 33 -9 33 -5 0 -9 10 -9 23 -1 12 -7
63 -15 114 -11 74 -11 94 0 109 8 11 9 21 3 29 -5 6 -12 30 -15 54 -8 63 -16
94 -30 111 -26 30 -85 158 -85 183 0 14 7 32 15 41 9 8 15 18 15 21 -1 9 33
57 56 80 12 12 23 26 25 32 5 14 133 83 184 99 50 16 137 17 246 4z m-11351
-76 c0 -9 -54 -64 -62 -64 -20 0 -5 41 20 54 29 16 42 19 42 10z m12780 -173
c0 -46 -9 -73 -21 -65 -10 6 -12 87 -2 97 15 16 23 5 23 -32z m-431 -8 c-9 -9
-8 -17 0 -27 9 -11 6 -15 -14 -18 -19 -4 -25 -1 -25 13 0 10 5 21 10 24 17 10
11 25 -10 25 -13 0 -20 -7 -20 -20 0 -11 -7 -20 -15 -20 -8 0 -15 -7 -15 -15
0 -8 -5 -15 -11 -15 -5 0 -7 4 -4 10 4 6 -1 7 -11 3 -15 -6 -15 -7 1 -15 9 -6
27 -7 40 -4 19 5 24 2 27 -16 2 -19 8 -22 31 -20 15 2 27 -1 27 -7 0 -6 -11
-11 -24 -11 -14 0 -28 -4 -31 -10 -3 -5 -16 -10 -28 -10 -12 0 -33 -12 -46
-26 l-24 -25 26 6 c23 6 27 4 27 -13 0 -15 -9 -21 -36 -27 -20 -3 -39 -4 -42
0 -8 7 -11 82 -4 107 3 15 12 19 36 16 17 -2 31 2 31 7 0 6 -10 10 -22 10 -33
1 -45 18 -41 56 3 33 4 34 48 34 25 1 54 6 64 12 27 15 71 -4 55 -24z m-9125
2 c24 -26 36 -65 36 -115 0 -15 8 -34 18 -43 10 -9 40 -59 66 -109 l47 -93 0
-120 c-1 -123 -18 -274 -44 -380 -8 -33 -20 -87 -27 -120 -22 -107 -39 -162
-56 -176 -19 -16 -237 -18 -476 -5 l-148 9 -6 36 c-9 47 10 291 31 406 20 105
43 169 101 280 44 84 87 202 79 215 -3 4 9 25 25 45 17 21 30 42 30 47 0 11
42 52 90 87 27 20 40 23 80 18 40 -5 53 -2 81 19 41 30 45 30 73 -1z m-3249
-34 c-7 -32 -25 -43 -25 -15 0 19 20 57 27 51 3 -3 2 -19 -2 -36z m11910 -158
c0 -136 -7 -153 -61 -153 -39 0 -41 8 -19 70 8 23 15 76 15 117 0 67 2 74 23
83 12 5 27 7 32 6 6 -2 10 -51 10 -123z m-7955 20 c0 -4 -7 -14 -16 -24 -14
-15 -18 -16 -30 -4 -21 21 -17 30 16 32 17 1 30 -1 30 -4z m-4052 -85 c-17
-25 -38 -35 -38 -18 0 16 23 39 39 40 11 0 11 -4 -1 -22z m4081 -9 c13 -14 26
-19 39 -15 13 4 22 1 26 -9 3 -9 10 -14 16 -10 5 3 3 -13 -5 -36 -10 -26 -15
-80 -15 -146 0 -101 -7 -131 -36 -161 -12 -11 -11 -19 1 -49 11 -25 12 -40 5
-47 -16 -16 -12 -92 5 -106 11 -9 14 -23 9 -45 -7 -42 7 -69 46 -85 37 -15 37
-26 5 -70 -16 -22 -21 -36 -14 -41 7 -4 5 -8 -5 -12 -9 -4 -16 -13 -16 -22 0
-10 -10 -15 -32 -16 -28 -1 -30 -2 -10 -7 13 -4 22 -11 20 -16 -5 -16 -48 -13
-53 4 -3 9 -23 30 -45 46 -22 16 -40 37 -40 47 0 9 -7 17 -15 17 -9 0 -15 9
-15 24 0 14 -5 28 -10 31 -14 9 -43 66 -44 90 -1 11 -7 19 -13 18 -6 -1 -17 5
-26 15 -20 23 -67 138 -77 187 -4 22 -15 60 -24 85 -10 26 -19 91 -23 156 l-6
110 40 12 c22 7 47 12 56 12 8 0 17 5 19 11 2 6 19 13 38 15 67 7 110 16 116
25 10 17 63 9 83 -12z m8251 11 c0 -5 -10 -10 -22 -9 -22 0 -22 1 -3 9 11 5
21 9 23 9 1 1 2 -3 2 -9z m-11100 -100 c0 -5 -4 -10 -9 -10 -5 0 -16 -3 -25
-6 -11 -4 -16 -1 -16 10 0 10 9 16 25 16 14 0 25 -4 25 -10z m604 -141 c14
-17 29 -43 32 -57 3 -15 8 -33 10 -40 2 -8 18 -78 36 -155 28 -128 32 -159 32
-307 0 -168 -16 -279 -61 -428 l-16 -53 -56 6 c-31 4 -68 11 -84 17 -32 12
-205 5 -317 -13 -121 -19 -113 -22 -127 46 -7 33 -17 128 -22 210 -6 83 -17
240 -26 350 -19 254 -14 299 42 328 16 7 50 26 77 41 61 35 188 66 290 71 43
3 81 7 84 10 3 3 22 5 43 5 29 0 43 -6 63 -31z m-1844 -196 c0 -19 -3 -24 -10
-17 -6 6 -8 18 -4 27 9 24 14 21 14 -10z m8180 -78 c27 -32 90 -66 181 -95 74
-24 108 -30 182 -30 85 0 187 13 232 30 11 4 74 24 140 45 66 20 130 41 143
46 13 5 35 9 50 9 25 -1 26 -1 7 -12 -11 -7 -31 -14 -45 -16 -33 -4 -73 -33
-76 -56 -4 -28 -11 -29 -18 -1 -4 14 -10 25 -15 25 -17 0 -61 -50 -61 -70 0
-11 -2 -20 -4 -20 -2 0 -12 -3 -22 -7 -13 -5 -16 -3 -12 9 4 8 2 21 -2 28 -7
11 -13 10 -34 -4 -32 -20 -34 -46 -3 -47 17 -1 13 -5 -18 -19 -141 -65 -347
-80 -481 -35 -106 36 -170 79 -200 137 -16 31 -20 62 -4 38 6 -11 12 -12 20
-4 13 13 2 44 -16 44 -18 0 -19 71 -2 88 10 10 16 4 28 -27 8 -21 22 -46 30
-56z m-1292 -237 c6 -18 13 -50 15 -71 7 -45 -5 -55 -117 -97 -141 -52 -299
-84 -476 -96 -96 -7 -104 -6 -92 9 19 23 11 62 -12 62 -14 0 -22 10 -28 34 -5
18 -7 35 -5 37 4 4 111 22 207 35 137 18 155 21 165 30 5 5 24 9 42 9 17 0 42
4 55 9 18 7 145 47 213 67 21 6 24 3 33 -28z m-2496 -152 c5 -26 -7 -46 -29
-46 -7 0 -32 -9 -56 -19 -51 -23 -149 -54 -259 -82 -127 -32 -156 -34 -179
-13 -11 9 -16 21 -12 24 5 4 55 22 113 40 58 17 113 36 122 41 10 5 26 9 36 9
10 0 22 3 26 7 4 4 19 9 33 11 14 2 56 14 92 27 88 31 107 31 113 1z m-1917
-36 c3 -5 1 -10 -4 -10 -6 0 -11 5 -11 10 0 6 2 10 4 10 3 0 8 -4 11 -10z
m9539 -57 c18 -181 19 -203 3 -198 -15 6 -21 31 -36 140 -5 33 -12 72 -16 88
-6 24 -5 27 18 27 23 0 26 -4 31 -57z m-7941 -152 c29 -15 47 -16 122 -9 48 5
90 7 92 4 2 -2 -19 -14 -46 -27 -56 -25 -61 -33 -31 -49 25 -13 26 -40 3 -40
-10 0 -46 5 -81 10 -57 10 -66 9 -93 -10 l-29 -21 0 22 c0 13 -9 32 -20 44
-19 21 -19 21 1 62 22 44 23 44 82 14z m5347 -111 l0 -90 -145 0 -145 0 0 -45
0 -45 116 0 117 0 -6 -76 c-4 -42 -9 -80 -13 -85 -3 -5 -52 -9 -110 -9 l-104
0 0 -125 0 -126 -107 3 -108 3 -3 343 -2 342 255 0 255 0 0 -90z m-3703 -6
c-3 -3 -12 -4 -19 -1 -8 3 -5 6 6 6 11 1 17 -2 13 -5z m4165 -35 c157 -33 242
-133 242 -284 1 -175 -121 -285 -317 -285 -101 0 -164 21 -224 74 -70 61 -88
105 -88 211 0 73 4 97 22 130 45 83 124 138 223 155 66 11 84 11 142 -1z
m1213 -10 c25 -7 57 -28 87 -58 54 -54 81 -129 76 -213 l-3 -53 -177 -3 c-146
-2 -178 -5 -178 -17 0 -44 113 -60 205 -29 57 20 59 18 89 -70 19 -56 19 -57
0 -70 -35 -27 -129 -46 -220 -46 -77 0 -97 4 -150 29 -134 63 -193 201 -148
350 17 58 76 131 128 159 75 39 190 48 291 21z m-5179 -4 c-16 -17 -42 -20
-51 -6 -5 9 15 16 53 20 10 1 10 -3 -2 -14z m4470 -20 c3 -14 7 -25 9 -25 2 0
23 11 46 25 30 17 59 25 92 25 l47 0 0 -80 0 -80 -37 0 c-21 0 -49 -6 -63 -13
-25 -13 -25 -13 -30 -192 l-5 -180 -104 -3 c-74 -2 -107 1 -112 9 -9 15 -12
516 -3 530 3 5 39 9 79 9 71 0 75 -1 81 -25z m-5894 -92 c-4 -2 -27 1 -52 6
-25 5 -36 9 -24 10 11 1 29 7 40 15 17 13 20 12 31 -7 6 -12 9 -23 5 -24z
m1246 -23 c7 -11 23 -20 37 -20 28 0 32 -12 10 -30 -9 -7 -15 -29 -15 -51 0
-27 -4 -39 -14 -39 -8 0 -18 5 -21 10 -9 14 -37 12 -71 -4 -16 -8 -42 -18 -59
-22 -29 -7 -30 -7 -12 13 28 32 21 50 -20 58 l-38 8 40 9 c22 5 50 11 63 14
12 2 32 20 45 39 25 40 37 43 55 15z m-1299 -166 c9 -3 6 -10 -10 -23 l-24
-19 19 -36 c14 -26 16 -39 8 -48 -5 -7 -12 -26 -14 -43 -2 -18 -9 -30 -18 -30
-9 0 -17 12 -20 30 -5 27 -9 30 -40 30 -28 0 -38 -6 -55 -32 -25 -40 -33 -41
-46 -3 -7 20 -18 30 -31 30 -19 0 -19 1 -4 25 9 14 16 45 16 73 0 27 2 51 4
53 5 5 197 -1 215 -7z m923 -2 c13 -5 15 -11 8 -22 -17 -26 -11 -37 32 -69 40
-30 41 -31 16 -31 -15 0 -43 9 -63 21 -19 12 -42 18 -50 15 -11 -4 -15 2 -15
25 0 58 25 79 72 61z m553 -191 c2 -12 1 -31 -3 -42 -8 -20 -9 -19 -36 6 -24
22 -26 28 -14 43 29 37 45 35 53 -7z m1288 -177 c56 -59 133 -129 171 -155 66
-47 68 -49 38 -49 -23 0 -32 5 -32 16 0 14 -8 16 -52 11 -69 -8 -93 8 -78 49
9 24 8 31 -6 41 -23 17 -61 17 -67 1 -3 -9 -13 -5 -31 12 -20 18 -26 32 -22
50 12 59 11 65 -11 74 -21 10 -39 56 -21 56 4 0 54 -48 111 -106z m-4045 18
c-2 -19 -9 -28 -25 -30 -20 -3 -23 1 -23 32 0 23 6 38 17 45 22 12 36 -8 31
-47z m2363 4 c38 -12 49 -12 70 0 35 19 48 17 55 -11 3 -13 12 -29 20 -36 18
-14 17 -39 -1 -63 -13 -17 -15 -17 -37 -2 -14 10 -43 16 -80 16 -32 0 -58 3
-58 7 0 3 8 15 17 26 17 18 16 20 -17 48 -39 32 -34 35 31 15z m1249 -36 c0
-5 -2 -10 -4 -10 -3 0 -8 5 -11 10 -3 6 -1 10 4 10 6 0 11 -4 11 -10z m-2090
-10 c-1 -17 -23 -29 -85 -49 -38 -12 -85 -31 -103 -42 -18 -10 -41 -19 -52
-19 -28 0 -31 26 -4 40 13 8 33 28 43 46 l19 32 91 -1 c50 -1 91 -4 91 -7z
m2130 -42 c34 -38 38 -58 10 -51 -25 7 -37 21 -45 56 -9 35 -1 34 35 -5z
m-1842 -36 c2 -6 -2 -12 -8 -12 -17 0 -70 46 -63 54 8 8 65 -26 71 -42z m-722
-11 c-7 -14 -16 -33 -19 -41 -3 -8 -6 6 -6 32 -1 41 1 46 19 41 17 -5 18 -8 6
-32z m764 -31 c0 -5 -7 -7 -15 -4 -8 4 -12 10 -9 15 6 11 24 2 24 -11z m-3320
-35 c0 -14 -58 -36 -73 -27 -10 5 42 42 61 42 6 0 12 -7 12 -15z m93 -22 c-7
-2 -19 -2 -25 0 -7 3 -2 5 12 5 14 0 19 -2 13 -5z"/>
<path d="M2362 8310 c0 -14 2 -19 5 -12 2 6 2 18 0 25 -3 6 -5 1 -5 -13z"/>
<path d="M2598 7462 c-69 -17 -108 -41 -108 -65 0 -27 241 -31 292 -6 20 11
19 47 -2 72 -19 22 -90 22 -182 -1z"/>
<path d="M3014 7116 c-10 -8 -16 -17 -13 -21 13 -12 62 -15 75 -4 12 10 10 14
-12 25 -32 17 -26 17 -50 0z"/>
<path d="M3170 6973 c-95 -31 -347 -57 -450 -46 -71 8 -80 7 -80 -7 0 -12 7
-15 28 -12 16 2 51 -4 78 -13 76 -27 351 -23 389 5 6 3 36 17 68 30 41 16 57
27 55 39 -4 21 -33 23 -88 4z"/>
<path d="M3877 6588 c11 -58 53 -124 53 -83 0 16 -47 115 -55 115 -2 0 -2 -15
2 -32z"/>
<path d="M4147 6313 c-12 -11 -8 -118 5 -131 20 -20 25 -14 25 29 0 45 -20
113 -30 102z"/>
<path d="M3898 6193 c7 -3 16 -2 19 1 4 3 -2 6 -13 5 -11 0 -14 -3 -6 -6z"/>
<path d="M3455 6000 c-3 -5 1 -10 9 -10 9 0 16 5 16 10 0 6 -4 10 -9 10 -6 0
-13 -4 -16 -10z"/>
<path d="M3331 5821 c-8 -5 -14 -23 -13 -41 1 -38 3 -42 20 -31 8 5 12 22 10
44 -2 28 -6 34 -17 28z"/>
<path d="M3402 5618 c-20 -20 -14 -55 14 -77 46 -36 83 9 46 58 -22 30 -42 37
-60 19z m43 -38 c-3 -5 -10 -10 -16 -10 -5 0 -9 5 -9 10 0 6 7 10 16 10 8 0
12 -4 9 -10z"/>
<path d="M4055 5333 c-21 -20 -12 -61 17 -86 19 -16 23 -16 36 -3 19 19 9 77
-18 93 -15 10 -22 10 -35 -4z"/>
<path d="M3416 5285 c-21 -22 -20 -48 3 -76 16 -19 23 -22 37 -14 25 16 34 49
20 76 -14 30 -38 35 -60 14z"/>
<path d="M2034 5043 c3 -21 6 -51 6 -67 0 -42 16 -21 28 36 10 49 2 68 -26 68
-11 0 -13 -9 -8 -37z"/>
<path d="M4145 4170 c-3 -5 -1 -10 4 -10 6 0 11 5 11 10 0 6 -2 10 -4 10 -3 0
-8 -4 -11 -10z"/>
<path d="M2644 3998 c-76 -42 -135 -86 -125 -92 11 -7 115 16 196 44 43 15 72
19 103 15 44 -7 82 0 82 15 0 14 -59 29 -139 36 -67 5 -81 3 -117 -18z"/>
<path d="M2925 3990 c-3 -5 1 -10 9 -10 9 0 16 5 16 10 0 6 -4 10 -9 10 -6 0
-13 -4 -16 -10z"/>
<path d="M3468 3873 c7 -3 16 -2 19 1 4 3 -2 6 -13 5 -11 0 -14 -3 -6 -6z"/>
<path d="M2054 3851 c-18 -11 -33 -23 -35 -28 -2 -5 -19 -19 -36 -32 -34 -23
-45 -61 -18 -61 9 0 18 -6 21 -14 7 -18 44 16 68 61 10 20 27 36 44 40 35 10
131 9 209 -1 73 -10 109 -3 124 25 10 19 9 20 -13 13 -31 -10 -231 -6 -282 6
-53 12 -46 13 -82 -9z"/>
<path d="M3836 3845 c-11 -8 -29 -15 -40 -15 -30 -1 -101 -35 -133 -64 -15
-14 -35 -26 -44 -26 -8 0 -28 -14 -45 -31 -16 -17 -42 -37 -57 -45 -19 -10
-26 -20 -23 -32 4 -11 -11 -35 -43 -70 -59 -64 -86 -115 -73 -138 5 -9 7 -38
4 -65 -3 -31 -1 -49 6 -49 11 0 16 12 27 66 3 17 17 42 31 54 13 13 24 29 24
36 0 11 23 31 175 149 39 30 88 79 110 109 22 31 42 56 45 56 4 0 25 18 48 40
29 28 36 40 24 40 -9 0 -26 -7 -36 -15z"/>
<path d="M4040 3758 c-14 -13 -70 -48 -125 -77 -92 -48 -165 -105 -152 -117 8
-8 205 65 270 100 32 17 73 39 91 48 32 16 62 45 55 52 -2 2 -29 7 -59 11 -49
5 -58 4 -80 -17z"/>
<path d="M2887 3624 c-9 -9 4 -35 14 -28 5 3 9 12 9 20 0 14 -12 19 -23 8z"/>
<path d="M3600 3339 c-48 -31 -65 -55 -34 -46 11 3 29 8 41 12 26 7 72 65 51
64 -7 0 -33 -14 -58 -30z"/>
<path d="M3520 3270 c0 -5 6 -10 14 -10 8 0 18 5 21 10 3 6 -3 10 -14 10 -12
0 -21 -4 -21 -10z"/>
<path d="M4410 2900 c0 -5 5 -10 11 -10 5 0 7 5 4 10 -3 6 -8 10 -11 10 -2 0
-4 -4 -4 -10z"/>
<path d="M3240 2203 c1 -18 18 -35 24 -24 4 6 4 16 1 21 -7 12 -25 13 -25 3z"/>
<path d="M5542 8214 c-12 -8 -22 -25 -22 -37 0 -21 3 -22 73 -19 40 2 109 -3
153 -12 43 -8 81 -13 83 -11 11 11 -12 34 -55 55 -27 13 -57 27 -66 32 -31 14
-141 9 -166 -8z"/>
<path d="M5025 8140 c-49 -24 -124 -92 -108 -97 6 -2 39 5 72 17 34 11 81 23
105 26 23 4 53 15 67 25 24 19 24 20 5 34 -28 21 -94 19 -141 -5z"/>
<path d="M5402 7934 c-31 -21 -19 -34 33 -34 24 0 46 4 50 9 6 10 -32 41 -50
41 -6 0 -21 -7 -33 -16z"/>
<path d="M5230 7911 c-15 -28 -13 -31 19 -31 39 0 61 9 61 25 0 29 -65 34 -80
6z"/>
<path d="M5294 7711 c-80 -29 -101 -43 -133 -87 -15 -21 -21 -39 -16 -53 7
-22 78 -88 119 -110 24 -13 28 -12 49 7 28 26 62 28 106 6 29 -15 33 -14 66 6
24 15 44 19 67 15 40 -6 58 6 87 60 29 55 27 88 -8 123 -49 49 -89 62 -183 61
-63 -1 -100 -8 -154 -28z m222 -23 c3 -4 18 -8 33 -8 35 0 60 -25 42 -43 -9
-9 -16 -9 -30 0 -21 13 -109 8 -221 -13 -19 -3 -45 -7 -58 -8 -12 -2 -28 -8
-34 -14 -16 -16 -35 -15 -41 1 -7 19 12 47 32 47 10 0 24 7 31 15 7 8 21 15
31 15 10 0 21 5 24 10 8 13 183 11 191 -2z"/>
<path d="M5567 7443 c-4 -3 -7 -11 -7 -17 0 -6 5 -5 12 2 6 6 9 14 7 17 -3 3
-9 2 -12 -2z"/>
<path d="M5043 4254 c3 -3 37 -13 74 -20 37 -8 76 -17 86 -20 28 -9 20 20 -10
34 -27 12 -162 18 -150 6z"/>
<path d="M6540 4010 c-32 -8 -168 -34 -325 -62 -33 -6 -112 -23 -175 -39 -297
-73 -379 -80 -521 -46 -128 31 -185 43 -269 57 -36 6 -77 13 -92 16 -22 4 -27
2 -22 -10 7 -18 60 -38 162 -61 115 -25 177 -52 230 -101 55 -48 77 -53 113
-25 39 30 64 33 144 16 78 -16 85 -15 200 16 127 35 149 43 235 85 92 44 144
60 320 93 142 26 179 31 252 31 43 0 78 4 78 8 0 25 -248 41 -330 22z"/>
<path d="M4740 3976 c-74 -13 -86 -19 -101 -47 -10 -19 -8 -20 28 -13 21 3 61
12 88 20 28 7 61 16 75 19 54 14 56 15 40 25 -19 12 -47 11 -130 -4z"/>
<path d="M6508 3683 c18 -2 45 -2 60 0 15 2 0 4 -33 4 -33 0 -45 -2 -27 -4z"/>
<path d="M6683 2613 c-11 -29 -144 -153 -164 -153 -13 0 -11 -13 5 -36 13 -17
13 -21 -7 -36 -17 -14 -19 -18 -6 -18 9 0 23 -10 31 -22 14 -20 18 -21 42 -10
15 6 36 12 47 12 26 0 89 58 82 76 -3 7 5 25 16 40 27 34 27 83 0 128 -23 40
-36 45 -46 19z"/>
<path d="M420 4679 c0 -5 5 -7 10 -4 6 3 10 8 10 11 0 2 -4 4 -10 4 -5 0 -10
-5 -10 -11z"/>
<path d="M7355 3531 c-10 -17 11 -21 31 -6 18 14 18 14 -3 15 -12 0 -24 -4
-28 -9z"/>
<path d="M7225 3350 c-3 -5 -1 -10 4 -10 6 0 11 5 11 10 0 6 -2 10 -4 10 -3 0
-8 -4 -11 -10z"/>
<path d="M12479 711 c-25 -26 -29 -37 -29 -86 0 -49 4 -60 29 -86 38 -38 91
-40 126 -4 22 21 25 33 25 94 0 63 -2 71 -26 90 -39 31 -89 28 -125 -8z"/>
<path d="M13190 575 c0 -15 10 -31 26 -42 23 -15 29 -15 52 -2 34 19 40 39 10
39 -12 0 -32 7 -42 15 -29 22 -46 18 -46 -10z"/>
<path d="M4923 1715 c-3 -9 -3 -19 1 -22 8 -9 37 18 30 28 -8 14 -24 11 -31
-6z"/>
<path d="M9084 1579 c-7 -12 20 -39 38 -39 9 0 23 29 17 34 -14 12 -48 15 -55
5z"/>
<path d="M9565 1536 c-23 -17 -14 -49 12 -39 30 10 42 24 36 39 -7 18 -24 18
-48 0z"/>
<path d="M9262 1532 c-15 -2 -22 -9 -20 -20 4 -23 46 -28 54 -7 9 21 -5 32
-34 27z"/>
<path d="M9430 1523 c-36 -14 -33 -43 5 -43 23 0 40 24 29 41 -6 10 -12 10
-34 2z"/>
<path d="M7736 1413 c-12 -12 -6 -43 9 -43 8 0 15 9 15 19 0 21 -13 34 -24 24z"/>
<path d="M7626 1355 c-9 -25 -8 -27 17 -23 12 2 22 10 22 18 0 21 -31 24 -39
5z"/>
<path d="M7464 1306 c-14 -11 -16 -18 -8 -26 15 -15 54 4 54 25 0 19 -21 19
-46 1z"/>
<path d="M7296 1277 c-23 -17 -4 -46 21 -31 9 6 18 15 20 21 6 16 -23 23 -41
10z"/>
<path d="M7156 1253 c-8 -19 8 -38 23 -29 16 10 13 46 -3 46 -8 0 -17 -8 -20
-17z"/>
<path d="M10614 715 c-52 -35 -55 -127 -7 -171 39 -36 105 -34 144 5 24 24 29
38 29 76 0 65 -39 105 -102 105 -24 0 -53 -7 -64 -15z"/>
<path d="M11804 736 c-17 -8 -34 -23 -37 -35 -5 -20 -1 -21 69 -21 73 0 86 7
66 36 -8 12 -46 34 -59 34 -4 -1 -22 -7 -39 -14z"/>
<path d="M8610 8643 c0 -5 5 -15 11 -23 8 -11 12 -12 16 -2 2 6 15 12 28 12
13 0 27 5 30 10 4 6 -12 10 -39 10 -25 0 -46 -3 -46 -7z"/>
<path d="M10481 8344 c0 -11 3 -14 6 -6 3 7 2 16 -1 19 -3 4 -6 -2 -5 -13z"/>
<path d="M588 8343 c6 -2 18 -2 25 0 6 3 1 5 -13 5 -14 0 -19 -2 -12 -5z"/>
<path d="M10603 8290 c0 -25 2 -35 4 -22 2 12 2 32 0 45 -2 12 -4 2 -4 -23z"/>
<path d="M8255 8228 c-10 -6 -30 -11 -44 -12 -15 -1 -27 -8 -29 -17 -2 -12 13
-18 71 -27 40 -6 81 -14 91 -18 14 -5 17 -2 14 15 -5 31 -77 73 -103 59z"/>
<path d="M7 8203 c-4 -3 -7 -21 -7 -40 l0 -33 55 0 c30 0 55 2 55 5 0 16 -31
63 -45 69 -22 8 -50 8 -58 -1z"/>
<path d="M540 8203 c-57 -9 -88 -30 -90 -59 0 -4 44 -7 98 -9 53 -1 106 -6
117 -12 11 -6 41 -13 67 -16 47 -6 47 -6 30 14 -75 88 -76 89 -138 88 -33 -1
-70 -4 -84 -6z"/>
<path d="M8310 8114 c-30 -7 -56 -18 -58 -23 -2 -6 -12 -11 -22 -11 -10 0 -21
-4 -24 -9 -6 -8 -64 -25 -79 -22 -4 1 -22 -12 -40 -29 -38 -36 -28 -38 68 -16
33 8 97 17 143 21 65 6 84 11 92 25 16 29 12 51 -10 57 -11 3 -17 9 -14 14 3
5 4 9 2 8 -2 -1 -28 -7 -58 -15z"/>
<path d="M8810 7884 c0 -9 20 -38 44 -65 31 -35 50 -68 66 -121 13 -40 27 -75
30 -78 4 -3 10 -12 14 -20 3 -8 4 9 1 38 -7 62 -17 88 -64 162 -56 90 -91 122
-91 84z"/>
<path d="M368 7856 c-10 -7 -18 -20 -18 -29 0 -9 8 -15 18 -15 9 0 29 -2 43
-6 39 -11 45 10 12 39 -33 28 -33 28 -55 11z"/>
<path d="M8696 7855 c-39 -30 -29 -45 31 -45 46 0 54 3 49 16 -3 9 -6 22 -6
30 0 19 -49 18 -74 -1z"/>
<path d="M8506 7824 c-23 -22 -20 -37 7 -30 12 3 29 6 37 6 8 0 22 5 30 10 13
9 13 11 0 20 -22 15 -57 12 -74 -6z"/>
<path d="M7531 7694 c-24 -31 -25 -39 -10 -85 14 -42 39 -70 46 -51 4 10 8 10
19 1 11 -9 13 -1 12 45 -1 31 2 59 5 63 4 3 18 1 31 -7 14 -7 32 -10 41 -6 14
5 15 0 10 -37 -9 -56 10 -76 55 -57 32 13 36 24 20 64 -6 16 -20 28 -37 32
-15 4 -33 10 -38 15 -6 4 -27 9 -47 11 -26 1 -38 7 -41 20 -7 26 -42 22 -66
-8z"/>
<path d="M399 7695 c-3 -2 -54 -9 -115 -14 -60 -6 -127 -17 -149 -25 -22 -8
-61 -20 -87 -27 -43 -10 -48 -14 -48 -40 0 -16 5 -29 12 -29 6 0 25 -11 42
-24 17 -13 50 -33 73 -45 36 -18 46 -19 63 -9 17 11 22 11 29 -1 6 -9 11 -10
15 -2 10 16 36 14 36 -3 0 -8 16 -17 37 -21 32 -6 40 -3 52 14 16 24 31 27 31
7 0 -9 12 -16 28 -18 15 -2 26 -8 25 -15 -2 -7 6 -13 17 -13 13 0 32 17 53 46
17 26 49 68 70 93 41 50 48 81 18 81 -10 0 -39 11 -62 25 -40 23 -126 35 -140
20z m-154 -55 c10 0 11 -7 2 -35 -9 -31 -15 -35 -46 -37 -61 -3 -84 1 -99 15
-12 13 -11 18 10 36 14 14 32 21 45 18 12 -2 28 0 35 4 7 5 19 7 26 4 8 -3 20
-5 27 -5z m180 -6 c28 -3 57 -12 65 -19 12 -13 12 -17 -5 -30 -11 -8 -28 -13
-37 -11 -9 2 -38 0 -64 -5 -53 -10 -68 -3 -79 38 -8 32 9 46 45 38 14 -4 48
-8 75 -11z"/>
<path d="M8320 7675 c0 -9 -7 -26 -14 -38 -19 -29 -31 -103 -18 -111 10 -6 24
41 37 122 4 23 4 42 1 42 -3 0 -6 -7 -6 -15z"/>
<path d="M8630 7656 c-104 -28 -158 -55 -216 -108 -56 -51 -73 -102 -50 -145
37 -73 99 -123 149 -123 16 0 34 -12 51 -35 15 -19 32 -35 38 -35 6 0 20 -7
30 -16 12 -12 43 -19 93 -22 l76 -5 38 41 c32 34 40 50 46 99 4 32 14 78 22
102 21 63 20 163 -3 202 -42 71 -124 84 -274 45z m149 -30 c62 -5 73 -29 18
-38 -23 -3 -59 -11 -80 -16 -30 -8 -39 -7 -46 6 -7 13 -10 12 -15 -6 -7 -19
-15 -22 -67 -22 -56 0 -59 1 -59 25 0 20 5 25 24 25 14 0 28 5 31 10 3 6 23
10 43 10 20 0 44 5 52 10 8 5 24 7 35 4 11 -2 40 -6 64 -8z m-279 -65 c0 -5
-7 -12 -16 -15 -24 -9 -28 -7 -14 9 14 17 30 20 30 6z m242 -161 c-1 -19 0
-22 8 -10 7 12 13 12 27 4 30 -18 31 -55 4 -96 -24 -36 -41 -48 -41 -29 0 5
-15 9 -32 9 -70 0 -138 23 -164 58 -14 18 -24 41 -22 50 4 23 65 39 152 39 70
0 71 0 68 -25z m108 -74 c0 -17 -14 -29 -23 -20 -8 8 3 34 14 34 5 0 9 -6 9
-14z"/>
<path d="M7892 7466 c9 -45 -9 -93 -42 -113 -22 -13 -27 -20 -18 -30 6 -7 8
-13 6 -13 -3 0 0 -21 7 -47 9 -36 17 -47 34 -50 35 -5 47 -14 111 -86 50 -56
60 -74 60 -104 0 -54 -60 -89 -75 -43 -7 23 -35 27 -35 5 0 -8 6 -15 14 -15
20 0 29 -35 16 -60 -15 -28 -42 -22 -58 13 -8 16 -20 31 -28 34 -7 3 -16 19
-19 37 -5 26 -41 66 -49 54 -1 -2 -13 -20 -25 -40 l-23 -38 34 0 c40 -1 59
-14 82 -57 9 -19 24 -33 35 -33 10 0 24 -7 31 -15 7 -8 21 -15 32 -15 11 0 31
-8 44 -19 17 -14 49 -20 118 -26 81 -6 102 -4 153 14 32 11 86 22 120 24 57 3
66 1 94 -24 l32 -28 -46 -48 c-59 -61 -50 -78 35 -70 l57 5 17 -44 c9 -24 23
-44 31 -44 16 0 63 44 63 60 0 5 4 10 9 10 5 0 11 8 13 18 3 9 18 23 34 31
111 53 111 53 60 104 -27 27 -31 35 -19 43 8 5 15 16 16 25 2 9 20 33 41 53
22 20 36 39 33 42 -3 3 -27 -7 -52 -22 -26 -15 -61 -28 -79 -29 -17 -2 -44 -8
-61 -15 -54 -22 -137 -6 -260 49 -22 10 -51 22 -65 26 -14 4 -46 22 -71 40
-26 18 -73 45 -105 60 -33 15 -67 31 -76 36 -39 20 -38 -2 2 -37 16 -15 27
-30 25 -35 -3 -4 1 -9 7 -12 7 -2 10 -8 6 -12 -4 -4 -28 6 -53 21 -41 26 -45
33 -44 64 1 19 -7 55 -18 80 -11 25 -32 77 -48 115 -52 132 -58 144 -83 167
l-25 23 5 -29z m258 -496 c0 -5 8 -10 18 -10 9 0 42 -9 72 -20 30 -11 56 -20
58 -20 2 0 0 -4 -3 -10 -3 -5 1 -10 9 -10 9 0 16 -4 16 -10 0 -5 -6 -10 -12
-10 -9 0 -8 -4 2 -10 26 -17 -61 -11 -108 8 -35 14 -47 26 -62 60 -16 35 -17
42 -5 42 8 0 15 -4 15 -10z"/>
<path d="M10348 7478 c8 -8 8 -16 0 -32 -10 -18 -5 -26 41 -67 65 -58 120 -84
158 -74 15 4 22 10 16 12 -19 7 -16 23 5 23 25 1 52 24 52 46 0 23 -79 78
-126 88 -24 5 -31 3 -31 -9 0 -8 7 -15 14 -15 8 0 12 -4 8 -9 -3 -6 3 -14 12
-20 15 -8 10 -10 -22 -11 -22 0 -51 7 -64 17 -23 15 -23 17 -6 29 17 12 16 14
-9 24 -38 14 -63 13 -48 -2z"/>
<path d="M13913 7384 c-36 -15 -44 -34 -14 -34 32 0 81 22 81 36 0 17 -25 17
-67 -2z"/>
<path d="M10865 7351 c-11 -3 -21 -13 -22 -21 -1 -8 -7 -29 -14 -47 -16 -39
-12 -44 37 -48 20 -2 40 -8 43 -12 3 -5 23 -19 43 -31 35 -22 42 -22 132 -13
73 7 99 14 115 30 11 11 38 25 60 31 39 10 55 33 29 42 -28 9 -164 8 -178 -2
-13 -8 -12 -10 5 -10 13 0 16 -3 8 -11 -16 -16 -80 0 -115 29 l-30 25 28 12
c26 10 27 12 9 19 -26 11 -124 15 -150 7z"/>
<path d="M13923 7285 c-47 -32 -72 -55 -59 -55 3 0 30 12 61 27 36 18 55 33
55 45 0 10 -1 18 -3 18 -1 0 -26 -16 -54 -35z"/>
<path d="M7749 7283 c21 -37 50 -67 57 -61 8 9 -42 78 -57 78 -6 0 -6 -6 0
-17z"/>
<path d="M9558 7293 c7 -3 16 -2 19 1 4 3 -2 6 -13 5 -11 0 -14 -3 -6 -6z"/>
<path d="M9593 7287 c2 -7 12 -13 23 -15 10 -2 29 -8 41 -14 33 -16 52 -5 23
14 -32 21 -93 31 -87 15z"/>
<path d="M10862 7030 c0 -14 2 -19 5 -12 2 6 2 18 0 25 -3 6 -5 1 -5 -13z"/>
<path d="M10475 6990 c3 -5 8 -10 11 -10 2 0 4 5 4 10 0 6 -5 10 -11 10 -5 0
-7 -4 -4 -10z"/>
<path d="M6768 6945 c-23 -31 -23 -30 14 -56 l31 -23 -6 43 c-7 56 -18 65 -39
36z"/>
<path d="M10755 6960 c-4 -6 6 -10 22 -10 22 0 25 2 13 10 -19 12 -27 12 -35
0z"/>
<path d="M10560 6926 c0 -28 62 -98 103 -116 69 -30 110 -34 169 -15 29 10 55
21 58 24 3 4 18 15 35 26 l30 19 -25 6 c-14 4 -72 8 -129 9 -90 2 -113 6 -173
31 -48 20 -68 25 -68 16z"/>
<path d="M7332 6850 c-11 -49 -18 -63 -38 -72 -14 -7 -32 -24 -40 -39 -13 -26
-12 -29 8 -43 12 -9 28 -16 35 -16 7 0 30 -27 50 -60 21 -33 43 -60 50 -60 7
0 20 16 29 36 17 35 17 35 75 33 33 -1 61 0 65 3 3 3 -4 24 -15 47 -28 54 -27
63 15 118 34 45 35 48 16 51 -11 2 -44 -1 -72 -6 -50 -9 -52 -9 -98 29 -26 22
-51 39 -57 39 -6 0 -17 -27 -23 -60z"/>
<path d="M11690 6690 c0 -5 5 -10 10 -10 6 0 10 5 10 10 0 6 -4 10 -10 10 -5
0 -10 -4 -10 -10z"/>
<path d="M13082 6510 c0 -14 2 -19 5 -12 2 6 2 18 0 25 -3 6 -5 1 -5 -13z"/>
<path d="M13061 6444 c0 -11 3 -14 6 -6 3 7 2 16 -1 19 -3 4 -6 -2 -5 -13z"/>
<path d="M13041 6404 c0 -11 3 -14 6 -6 3 7 2 16 -1 19 -3 4 -6 -2 -5 -13z"/>
<path d="M8045 6388 c-22 -6 -76 -11 -120 -12 l-80 -1 3 -50 c3 -41 -1 -56
-22 -84 -38 -51 -34 -59 32 -67 59 -7 80 -21 108 -76 8 -16 19 -28 25 -28 5 0
21 24 35 54 24 53 27 55 89 76 74 25 76 36 8 75 l-45 27 7 49 c4 27 5 48 3 48
-1 -1 -21 -6 -43 -11z"/>
<path d="M13910 6359 c0 -7 35 -19 58 -19 28 0 9 18 -23 22 -19 2 -35 1 -35
-3z"/>
<path d="M7164 6179 c3 -18 8 -35 11 -37 9 -10 55 18 55 32 0 17 -5 21 -44 30
-28 7 -29 6 -22 -25z"/>
<path d="M8638 5893 l-57 -36 -55 23 c-30 12 -59 19 -65 16 -6 -4 -4 -27 4
-63 l13 -58 -50 -53 c-59 -63 -55 -72 33 -71 62 2 79 -4 79 -27 0 -8 4 -14 8
-14 5 0 14 -11 20 -25 6 -14 15 -25 19 -25 5 0 26 29 49 63 37 57 46 64 92 76
44 11 83 35 71 45 -2 1 -26 18 -53 36 l-48 33 6 58 c4 33 3 59 -1 59 -4 -1
-34 -17 -65 -37z"/>
<path d="M7446 5785 c4 -16 11 -38 15 -47 5 -9 9 -38 9 -63 0 -35 8 -60 33
-101 32 -53 47 -66 47 -40 0 7 14 19 30 26 17 7 30 16 30 21 0 5 -14 30 -30
56 -30 47 -31 60 -14 123 2 8 0 21 -5 29 -7 11 -15 10 -41 -9 l-32 -23 -25 29
-25 29 8 -30z"/>
<path d="M9280 5516 c0 -16 5 -26 15 -26 8 0 15 6 15 14 0 7 -7 19 -15 26 -13
11 -15 8 -15 -14z"/>
<path d="M9216 5448 c-51 -34 -49 -34 -149 -1 -18 5 -18 1 -12 -58 7 -64 7
-64 -34 -115 -23 -29 -41 -57 -41 -62 0 -6 24 -12 53 -14 l52 -3 25 -52 c14
-29 30 -53 37 -53 7 0 24 26 38 58 24 54 30 60 73 73 27 8 48 21 50 30 1 8
-10 32 -26 52 -27 33 -28 40 -21 84 4 26 10 55 14 64 11 30 -10 28 -59 -3z"/>
<path d="M12361 5394 c0 -11 3 -14 6 -6 3 7 2 16 -1 19 -3 4 -6 -2 -5 -13z"/>
<path d="M12410 5307 c0 -18 28 -75 41 -82 14 -9 11 18 -6 59 -15 36 -35 49
-35 23z"/>
<path d="M7986 5258 l-48 -31 -51 21 c-28 12 -53 20 -55 17 -3 -3 1 -30 8 -60
12 -49 11 -60 -3 -91 -25 -52 -22 -58 35 -72 38 -9 64 -23 93 -52 23 -22 44
-37 48 -34 4 4 7 24 7 45 0 36 2 38 50 54 28 9 50 22 50 29 0 8 -19 26 -41 41
-41 27 -41 28 -36 73 4 26 9 57 13 70 9 30 -10 28 -70 -10z"/>
<path d="M9520 4943 c0 -5 -9 -19 -19 -32 -17 -23 -19 -23 -44 -7 -33 22 -40
10 -31 -62 5 -51 3 -65 -19 -109 -28 -54 -27 -63 9 -63 20 0 23 -6 26 -47 3
-52 22 -64 42 -28 6 11 14 22 18 25 3 3 10 18 13 33 4 15 20 36 36 48 34 24
37 52 9 94 -14 22 -20 47 -20 93 0 34 -4 62 -10 62 -5 0 -10 -3 -10 -7z"/>
<path d="M13825 4813 c-11 -3 -29 -12 -40 -19 -11 -8 -27 -14 -36 -14 -18 0
-49 -30 -49 -48 0 -7 9 -12 20 -12 11 0 20 5 20 10 0 6 5 10 10 10 6 0 10 -6
10 -14 0 -8 7 -16 15 -18 26 -5 1 -25 -40 -32 -29 -5 -36 -4 -25 3 12 9 10 11
-10 11 -18 0 -21 3 -12 9 11 6 10 10 -4 15 -9 4 -22 2 -27 -3 -5 -5 -16 -7
-24 -4 -8 3 -34 -9 -58 -26 -24 -17 -49 -29 -57 -26 -20 8 -42 63 -30 78 16
20 24 57 13 57 -5 0 -21 -11 -35 -25 -20 -19 -24 -34 -23 -67 2 -43 2 -43 -54
-70 -32 -16 -95 -34 -143 -41 -48 -8 -90 -17 -93 -21 -32 -32 131 -23 247 14
30 10 82 18 115 19 33 1 74 6 90 10 17 5 54 12 84 16 30 3 70 13 89 21 19 8
45 14 59 14 13 0 26 7 29 15 8 21 34 19 34 -2 1 -17 1 -17 14 0 7 9 25 17 40
17 22 0 26 4 26 31 0 26 -2 29 -15 17 -54 -49 -61 -43 -15 12 36 42 41 77 9
59 -15 -8 -24 -8 -32 0 -11 11 -65 13 -102 4z m92 -49 c-3 -3 -12 -4 -19 -1
-8 3 -5 6 6 6 11 1 17 -2 13 -5z m-447 -124 c0 -5 -2 -10 -4 -10 -3 0 -8 5
-11 10 -3 6 -1 10 4 10 6 0 11 -4 11 -10z m35 -10 c3 -5 1 -10 -4 -10 -6 0
-11 5 -11 10 0 6 2 10 4 10 3 0 8 -4 11 -10z"/>
<path d="M8610 4753 c-61 -37 -76 -39 -127 -18 -40 17 -73 20 -73 6 0 -5 5
-32 12 -61 l12 -51 -44 -44 c-27 -27 -40 -48 -35 -53 6 -5 36 -14 68 -21 31
-7 57 -16 57 -20 0 -5 18 -20 39 -34 l40 -27 20 26 c11 14 23 33 26 43 3 10
25 22 52 30 66 17 93 29 93 39 0 5 -20 23 -45 41 -49 35 -52 45 -34 117 7 26
8 49 3 53 -5 4 -34 -7 -64 -26z"/>
<path d="M13330 4765 c-14 -6 -38 -18 -54 -26 -43 -21 -33 -34 30 -37 64 -3
76 4 79 47 3 35 -11 39 -55 16z"/>
<path d="M7576 4679 c-9 -30 -26 -66 -36 -80 -37 -52 -32 -64 43 -93 30 -12
37 -20 37 -41 0 -23 3 -25 23 -20 12 4 28 15 36 26 8 11 25 19 42 19 41 0 37
22 -11 67 -41 39 -48 62 -30 109 13 34 9 38 -25 22 -20 -9 -29 -10 -32 -2 -2
6 -10 19 -17 29 -11 16 -15 12 -30 -36z"/>
<path d="M13150 4686 c0 -10 28 -13 41 -5 10 6 7 9 -13 9 -16 0 -28 -2 -28 -4z"/>
<path d="M10802 4536 c1 -10 8 -17 13 -17 15 1 12 24 -3 29 -9 3 -13 -2 -10
-12z"/>
<path d="M13240 4450 c-63 -25 -107 -50 -95 -52 46 -7 72 -3 86 13 12 15 31
19 75 19 53 1 94 15 94 34 0 14 -118 4 -160 -14z"/>
<path d="M10884 4374 c4 -16 14 -43 22 -60 8 -17 16 -42 18 -55 2 -13 8 -36
14 -50 6 -15 16 -46 22 -70 7 -24 26 -70 43 -102 29 -55 33 -59 62 -54 17 3
48 -1 70 -9 22 -7 41 -14 42 -14 0 0 -1 10 -5 23 -8 35 -54 101 -206 299 -26
34 -52 73 -57 85 -13 35 -33 41 -25 7z"/>
<path d="M13220 4311 c0 -9 51 -34 57 -27 2 2 -10 11 -26 19 -17 9 -31 12 -31
8z"/>
<path d="M9253 4182 c-18 -11 7 -56 33 -60 17 -2 23 3 27 25 3 15 4 29 4 30
-8 7 -55 12 -64 5z"/>
<path d="M177 3704 c-7 -8 14 -54 25 -54 15 0 21 30 8 45 -13 16 -23 19 -33 9z"/>
<path d="M215 3619 c-4 -6 -3 -15 3 -21 6 -6 11 -4 15 6 7 18 -9 31 -18 15z"/>
<path d="M22 3388 c-7 -7 -12 -23 -12 -37 0 -23 1 -23 18 -8 10 10 23 17 29
17 6 0 9 9 6 20 -6 23 -23 26 -41 8z"/>
<path d="M87 3360 c-3 -11 -1 -20 4 -20 5 0 9 9 9 20 0 11 -2 20 -4 20 -2 0
-6 -9 -9 -20z"/>
<path d="M45 3290 c4 -6 11 -8 16 -5 14 9 11 15 -7 15 -8 0 -12 -5 -9 -10z"/>
<path d="M9 3250 c0 -3 -2 -13 -4 -22 -4 -20 10 -24 21 -7 3 6 1 16 -5 22 -6
6 -11 9 -12 7z"/>
<path d="M62 3221 c4 -13 18 -16 19 -4 0 4 -5 9 -11 12 -7 2 -11 -2 -8 -8z"/>
<path d="M71 3164 c0 -11 3 -14 6 -6 3 7 2 16 -1 19 -3 4 -6 -2 -5 -13z"/>
<path d="M68 3085 c-3 -14 -1 -28 3 -31 5 -3 9 9 9 25 0 38 -6 40 -12 6z"/>
<path d="M20 3080 c-12 -8 -10 -10 8 -10 13 0 20 4 17 10 -7 12 -6 12 -25 0z"/>
<path d="M6070 15 c-11 -13 -4 -15 51 -15 l64 1 -34 14 c-42 19 -65 19 -81 0z"/>
</g>
</svg>
